%TF.GenerationSoftware,KiCad,Pcbnew,(7.0.0)*%
%TF.CreationDate,2023-09-07T10:01:15-05:00*%
%TF.ProjectId,AcousticSensor,41636f75-7374-4696-9353-656e736f722e,rev?*%
%TF.SameCoordinates,Original*%
%TF.FileFunction,Copper,L4,Bot*%
%TF.FilePolarity,Positive*%
%FSLAX46Y46*%
G04 Gerber Fmt 4.6, Leading zero omitted, Abs format (unit mm)*
G04 Created by KiCad (PCBNEW (7.0.0)) date 2023-09-07 10:01:15*
%MOMM*%
%LPD*%
G01*
G04 APERTURE LIST*
%TA.AperFunction,ComponentPad*%
%ADD10R,1.700000X1.700000*%
%TD*%
%TA.AperFunction,ComponentPad*%
%ADD11O,1.700000X1.700000*%
%TD*%
%TA.AperFunction,ComponentPad*%
%ADD12C,1.524000*%
%TD*%
%TA.AperFunction,ComponentPad*%
%ADD13R,1.218000X1.218000*%
%TD*%
%TA.AperFunction,ComponentPad*%
%ADD14C,1.218000*%
%TD*%
%TA.AperFunction,ComponentPad*%
%ADD15C,1.600000*%
%TD*%
%TA.AperFunction,ComponentPad*%
%ADD16O,1.600000X1.600000*%
%TD*%
%TA.AperFunction,ViaPad*%
%ADD17C,0.600000*%
%TD*%
%TA.AperFunction,Conductor*%
%ADD18C,0.250000*%
%TD*%
G04 APERTURE END LIST*
D10*
%TO.P,JP3,1,Pin_1*%
%TO.N,unconnected-(JP3-Pin_1-Pad1)*%
X127939999Y-97459999D03*
D11*
%TO.P,JP3,2,Pin_2*%
%TO.N,/IOREF*%
X130479999Y-97459999D03*
%TO.P,JP3,3,Pin_3*%
%TO.N,/RST*%
X133019999Y-97459999D03*
%TO.P,JP3,4,Pin_4*%
%TO.N,+3V3*%
X135559999Y-97459999D03*
%TO.P,JP3,5,Pin_5*%
%TO.N,+5V*%
X138099999Y-97459999D03*
%TO.P,JP3,6,Pin_6*%
%TO.N,GND*%
X140639999Y-97459999D03*
%TO.P,JP3,7,Pin_7*%
X143179999Y-97459999D03*
%TO.P,JP3,8,Pin_8*%
%TO.N,VCC*%
X145719999Y-97459999D03*
%TD*%
D10*
%TO.P,JP4,1,Pin_1*%
%TO.N,/A0*%
X150799999Y-97459999D03*
D11*
%TO.P,JP4,2,Pin_2*%
%TO.N,/A1*%
X153339999Y-97459999D03*
%TO.P,JP4,3,Pin_3*%
%TO.N,/A2*%
X155879999Y-97459999D03*
%TO.P,JP4,4,Pin_4*%
%TO.N,/A3*%
X158419999Y-97459999D03*
%TO.P,JP4,5,Pin_5*%
%TO.N,/A4*%
X160959999Y-97459999D03*
%TO.P,JP4,6,Pin_6*%
%TO.N,/A5*%
X163499999Y-97459999D03*
%TD*%
%TO.P,JP2,10,Pin_10*%
%TO.N,Record*%
X141655999Y-49199999D03*
%TO.P,JP2,9,Pin_9*%
%TO.N,/\u002AD9*%
X139115999Y-49199999D03*
%TO.P,JP2,8,Pin_8*%
%TO.N,/SPI_CS{slash}D10*%
X136575999Y-49199999D03*
%TO.P,JP2,7,Pin_7*%
%TO.N,/SPI_MOSI{slash}D11*%
X134035999Y-49199999D03*
%TO.P,JP2,6,Pin_6*%
%TO.N,/SPI_MISO{slash}D12*%
X131495999Y-49199999D03*
%TO.P,JP2,5,Pin_5*%
%TO.N,/SPI_SCK{slash}D13*%
X128955999Y-49199999D03*
%TO.P,JP2,4,Pin_4*%
%TO.N,GND*%
X126415999Y-49199999D03*
%TO.P,JP2,3,Pin_3*%
%TO.N,/AREF*%
X123875999Y-49199999D03*
%TO.P,JP2,2,Pin_2*%
%TO.N,SDA*%
X121335999Y-49199999D03*
D10*
%TO.P,JP2,1,Pin_1*%
%TO.N,SCL*%
X118795999Y-49199999D03*
%TD*%
%TO.P,JP13,1,Pin_1*%
%TO.N,Gain*%
X145719999Y-49199999D03*
D11*
%TO.P,JP13,2,Pin_2*%
%TO.N,/\u002AD6*%
X148259999Y-49199999D03*
%TO.P,JP13,3,Pin_3*%
%TO.N,/\u002AD5*%
X150799999Y-49199999D03*
%TO.P,JP13,4,Pin_4*%
%TO.N,Aux*%
X153339999Y-49199999D03*
%TO.P,JP13,5,Pin_5*%
%TO.N,/\u002AD3*%
X155879999Y-49199999D03*
%TO.P,JP13,6,Pin_6*%
%TO.N,/D2*%
X158419999Y-49199999D03*
%TO.P,JP13,7,Pin_7*%
%TO.N,/TX{slash}D1*%
X160959999Y-49199999D03*
%TO.P,JP13,8,Pin_8*%
%TO.N,/RX{slash}D0*%
X163499999Y-49199999D03*
%TD*%
D12*
%TO.P,REF\u002A\u002A,1*%
%TO.N,Net-(M1-1)*%
X124130000Y-62535000D03*
%TO.P,REF\u002A\u002A,2*%
%TO.N,Net-(M2-1)*%
X124130000Y-65075000D03*
%TO.P,REF\u002A\u002A,3*%
%TO.N,Net-(M3-1)*%
X124130000Y-67615000D03*
%TO.P,REF\u002A\u002A,4*%
%TO.N,Net-(M4-1)*%
X124130000Y-70155000D03*
%TO.P,REF\u002A\u002A,5*%
%TO.N,GNDA*%
X124130000Y-72695000D03*
%TO.P,REF\u002A\u002A,6*%
X124130000Y-75235000D03*
%TD*%
%TO.P,U2,1,Vin*%
%TO.N,+3V3*%
X130480000Y-93650000D03*
%TO.P,U2,2,SCL*%
%TO.N,SCL*%
X133020000Y-93650000D03*
%TO.P,U2,3,SDA*%
%TO.N,SDA*%
X135560000Y-93650000D03*
%TO.P,U2,4,GND*%
%TO.N,GND*%
X138100000Y-93650000D03*
%TD*%
%TO.P,U1,1,Vin*%
%TO.N,+3V3*%
X124765000Y-90475000D03*
%TO.P,U1,2,GND*%
%TO.N,GND*%
X127305000Y-90475000D03*
%TO.P,U1,3,SCL*%
%TO.N,SCL*%
X129845000Y-90475000D03*
%TO.P,U1,4,SDA*%
%TO.N,SDA*%
X132385000Y-90475000D03*
%TD*%
D13*
%TO.P,VR4,1*%
%TO.N,GND*%
X162864999Y-91744999D03*
D14*
%TO.P,VR4,2*%
%TO.N,Mic D*%
X162865000Y-89205000D03*
%TO.P,VR4,3*%
%TO.N,Net-(C4-Pad2)*%
X162865000Y-86665000D03*
%TD*%
D13*
%TO.P,VR3,1*%
%TO.N,GND*%
X162864999Y-80949999D03*
D14*
%TO.P,VR3,2*%
%TO.N,Mic C*%
X162865000Y-78410000D03*
%TO.P,VR3,3*%
%TO.N,Net-(C3-Pad2)*%
X162865000Y-75870000D03*
%TD*%
D13*
%TO.P,VR2,1*%
%TO.N,GND*%
X162864999Y-70154999D03*
D14*
%TO.P,VR2,2*%
%TO.N,Mic B*%
X162865000Y-67615000D03*
%TO.P,VR2,3*%
%TO.N,Net-(C2-Pad2)*%
X162865000Y-65075000D03*
%TD*%
D13*
%TO.P,VR1,1*%
%TO.N,GND*%
X162864999Y-59359999D03*
D14*
%TO.P,VR1,2*%
%TO.N,Mic A*%
X162865000Y-56820000D03*
%TO.P,VR1,3*%
%TO.N,Net-(C1-Pad1)*%
X162865000Y-54280000D03*
%TD*%
D12*
%TO.P,SW1,1,1*%
%TO.N,Aux*%
X141045000Y-62535000D03*
%TO.P,SW1,2,2*%
%TO.N,GND*%
X144045000Y-62535000D03*
%TD*%
D15*
%TO.P,R4,1*%
%TO.N,Net-(M4-1)*%
X158420000Y-92380000D03*
D16*
%TO.P,R4,2*%
%TO.N,Bias D*%
X148259999Y-92379999D03*
%TD*%
D15*
%TO.P,R3,1*%
%TO.N,Net-(M3-1)*%
X158420000Y-81585000D03*
D16*
%TO.P,R3,2*%
%TO.N,Bias C*%
X148259999Y-81584999D03*
%TD*%
%TO.P,R2,2*%
%TO.N,Bias B*%
X148259999Y-70789999D03*
D15*
%TO.P,R2,1*%
%TO.N,Net-(M2-1)*%
X158420000Y-70790000D03*
%TD*%
D16*
%TO.P,R1,2*%
%TO.N,Bias A*%
X148259999Y-59994999D03*
D15*
%TO.P,R1,1*%
%TO.N,Net-(M1-1)*%
X158420000Y-59995000D03*
%TD*%
D11*
%TO.P,JP10,16,Pin_16*%
%TO.N,/DMIC_CLK*%
X143179999Y-56819999D03*
%TO.P,JP10,15,Pin_15*%
%TO.N,unconnected-(JP10-Pin_15-Pad15)*%
X143179999Y-54279999D03*
%TO.P,JP10,14,Pin_14*%
%TO.N,GNDA*%
X140639999Y-56819999D03*
%TO.P,JP10,13,Pin_13*%
X140639999Y-54279999D03*
%TO.P,JP10,12,Pin_12*%
%TO.N,Bias A*%
X138099999Y-56819999D03*
%TO.P,JP10,11,Pin_11*%
%TO.N,Bias B*%
X138099999Y-54279999D03*
%TO.P,JP10,10,Pin_10*%
%TO.N,Mic A*%
X135559999Y-56819999D03*
%TO.P,JP10,9,Pin_9*%
%TO.N,Mic B*%
X135559999Y-54279999D03*
%TO.P,JP10,8,Pin_8*%
%TO.N,GNDA*%
X133019999Y-56819999D03*
%TO.P,JP10,7,Pin_7*%
X133019999Y-54279999D03*
%TO.P,JP10,6,Pin_6*%
%TO.N,Bias C*%
X130479999Y-56819999D03*
%TO.P,JP10,5,Pin_5*%
%TO.N,Bias D*%
X130479999Y-54279999D03*
%TO.P,JP10,4,Pin_4*%
%TO.N,Mic C*%
X127939999Y-56819999D03*
%TO.P,JP10,3,Pin_3*%
%TO.N,Mic D*%
X127939999Y-54279999D03*
%TO.P,JP10,2,Pin_2*%
%TO.N,/UART_SEL*%
X125399999Y-56819999D03*
D10*
%TO.P,JP10,1,Pin_1*%
%TO.N,GND*%
X125399999Y-54279999D03*
%TD*%
D15*
%TO.P,C4,1*%
%TO.N,Net-(M4-1)*%
X153420000Y-86665000D03*
%TO.P,C4,2*%
%TO.N,Net-(C4-Pad2)*%
X158420000Y-86665000D03*
%TD*%
%TO.P,C3,1*%
%TO.N,Net-(M3-1)*%
X153420000Y-75870000D03*
%TO.P,C3,2*%
%TO.N,Net-(C3-Pad2)*%
X158420000Y-75870000D03*
%TD*%
%TO.P,C2,2*%
%TO.N,Net-(C2-Pad2)*%
X158380000Y-65075000D03*
%TO.P,C2,1*%
%TO.N,Net-(M2-1)*%
X153380000Y-65075000D03*
%TD*%
%TO.P,C1,1*%
%TO.N,Net-(C1-Pad1)*%
X158420000Y-54280000D03*
%TO.P,C1,2*%
%TO.N,Net-(M1-1)*%
X153420000Y-54280000D03*
%TD*%
D12*
%TO.P,B2,2,2*%
%TO.N,GND*%
X137695000Y-62535000D03*
%TO.P,B2,1,1*%
%TO.N,Gain*%
X134695000Y-62535000D03*
%TD*%
%TO.P,B1,1,1*%
%TO.N,Record*%
X128345000Y-62535000D03*
%TO.P,B1,2,2*%
%TO.N,GND*%
X131345000Y-62535000D03*
%TD*%
D17*
%TO.N,Aux*%
X150114000Y-54356000D03*
%TO.N,Gain*%
X147574000Y-54356000D03*
%TO.N,Mic C*%
X149225000Y-84455000D03*
X152400000Y-84455000D03*
%TO.N,GND*%
X141910000Y-91745000D03*
%TD*%
D18*
%TO.N,Aux*%
X145785000Y-59955000D02*
X150114000Y-55626000D01*
X141045000Y-61139000D02*
X142229000Y-59955000D01*
X142229000Y-59955000D02*
X145785000Y-59955000D01*
X141045000Y-62535000D02*
X141045000Y-61139000D01*
X150114000Y-55626000D02*
X150114000Y-54356000D01*
%TO.N,Gain*%
X144711000Y-59505000D02*
X147574000Y-56642000D01*
X137725000Y-59505000D02*
X144711000Y-59505000D01*
X134695000Y-62535000D02*
X137725000Y-59505000D01*
X147574000Y-56642000D02*
X147574000Y-54356000D01*
%TO.N,Mic A*%
X137795000Y-59055000D02*
X135560000Y-56820000D01*
X144399000Y-59055000D02*
X137795000Y-59055000D01*
X145796000Y-53340000D02*
X145796000Y-57658000D01*
X145796000Y-57658000D02*
X144399000Y-59055000D01*
X159385000Y-52070000D02*
X147066000Y-52070000D01*
X147066000Y-52070000D02*
X145796000Y-53340000D01*
X160655000Y-53340000D02*
X159385000Y-52070000D01*
X160655000Y-55880000D02*
X160655000Y-53340000D01*
X161595000Y-56820000D02*
X160655000Y-55880000D01*
X162865000Y-56820000D02*
X161595000Y-56820000D01*
%TO.N,Record*%
X139686000Y-51170000D02*
X141656000Y-49200000D01*
X122936000Y-58420000D02*
X122936000Y-53086000D01*
X122936000Y-53086000D02*
X124852000Y-51170000D01*
X127051000Y-62535000D02*
X122936000Y-58420000D01*
X128345000Y-62535000D02*
X127051000Y-62535000D01*
X124852000Y-51170000D02*
X139686000Y-51170000D01*
%TO.N,Net-(M1-1)*%
X153420000Y-59178000D02*
X153420000Y-54280000D01*
X125603000Y-64008000D02*
X148590000Y-64008000D01*
X124130000Y-62535000D02*
X125603000Y-64008000D01*
X148590000Y-64008000D02*
X153420000Y-59178000D01*
%TO.N,Mic C*%
X152400000Y-84455000D02*
X149225000Y-84455000D01*
%TO.N,Mic B*%
X163380000Y-51620000D02*
X138220000Y-51620000D01*
X138220000Y-51620000D02*
X135560000Y-54280000D01*
X165100000Y-53340000D02*
X163380000Y-51620000D01*
X165100000Y-65380000D02*
X165100000Y-53340000D01*
X162865000Y-67615000D02*
X165100000Y-65380000D01*
%TO.N,Net-(M4-1)*%
X149530000Y-86665000D02*
X153420000Y-86665000D01*
X133020000Y-70155000D02*
X149530000Y-86665000D01*
X124130000Y-70155000D02*
X133020000Y-70155000D01*
%TO.N,Net-(M3-1)*%
X153420000Y-71505000D02*
X153420000Y-75870000D01*
X124130000Y-67615000D02*
X149530000Y-67615000D01*
X149530000Y-67615000D02*
X153420000Y-71505000D01*
%TO.N,Net-(M2-1)*%
X124130000Y-65075000D02*
X153380000Y-65075000D01*
%TD*%
M02*
