%TF.GenerationSoftware,KiCad,Pcbnew,(7.0.0)*%
%TF.CreationDate,2023-09-07T10:01:15-05:00*%
%TF.ProjectId,AcousticSensor,41636f75-7374-4696-9353-656e736f722e,rev?*%
%TF.SameCoordinates,Original*%
%TF.FileFunction,Legend,Top*%
%TF.FilePolarity,Positive*%
%FSLAX46Y46*%
G04 Gerber Fmt 4.6, Leading zero omitted, Abs format (unit mm)*
G04 Created by KiCad (PCBNEW (7.0.0)) date 2023-09-07 10:01:15*
%MOMM*%
%LPD*%
G01*
G04 APERTURE LIST*
%ADD10C,0.150000*%
%ADD11C,0.100000*%
%ADD12C,0.120000*%
%ADD13C,0.127000*%
%ADD14C,0.200000*%
G04 APERTURE END LIST*
D10*
X133397523Y-95699142D02*
X133349904Y-95746761D01*
X133349904Y-95746761D02*
X133207047Y-95794380D01*
X133207047Y-95794380D02*
X133111809Y-95794380D01*
X133111809Y-95794380D02*
X132968952Y-95746761D01*
X132968952Y-95746761D02*
X132873714Y-95651523D01*
X132873714Y-95651523D02*
X132826095Y-95556285D01*
X132826095Y-95556285D02*
X132778476Y-95365809D01*
X132778476Y-95365809D02*
X132778476Y-95222952D01*
X132778476Y-95222952D02*
X132826095Y-95032476D01*
X132826095Y-95032476D02*
X132873714Y-94937238D01*
X132873714Y-94937238D02*
X132968952Y-94842000D01*
X132968952Y-94842000D02*
X133111809Y-94794380D01*
X133111809Y-94794380D02*
X133207047Y-94794380D01*
X133207047Y-94794380D02*
X133349904Y-94842000D01*
X133349904Y-94842000D02*
X133397523Y-94889619D01*
X135366095Y-95794380D02*
X135366095Y-94794380D01*
X135366095Y-94794380D02*
X135604190Y-94794380D01*
X135604190Y-94794380D02*
X135747047Y-94842000D01*
X135747047Y-94842000D02*
X135842285Y-94937238D01*
X135842285Y-94937238D02*
X135889904Y-95032476D01*
X135889904Y-95032476D02*
X135937523Y-95222952D01*
X135937523Y-95222952D02*
X135937523Y-95365809D01*
X135937523Y-95365809D02*
X135889904Y-95556285D01*
X135889904Y-95556285D02*
X135842285Y-95651523D01*
X135842285Y-95651523D02*
X135747047Y-95746761D01*
X135747047Y-95746761D02*
X135604190Y-95794380D01*
X135604190Y-95794380D02*
X135366095Y-95794380D01*
X130286095Y-95794380D02*
X130286095Y-94794380D01*
X130286095Y-94794380D02*
X130667047Y-94794380D01*
X130667047Y-94794380D02*
X130762285Y-94842000D01*
X130762285Y-94842000D02*
X130809904Y-94889619D01*
X130809904Y-94889619D02*
X130857523Y-94984857D01*
X130857523Y-94984857D02*
X130857523Y-95127714D01*
X130857523Y-95127714D02*
X130809904Y-95222952D01*
X130809904Y-95222952D02*
X130762285Y-95270571D01*
X130762285Y-95270571D02*
X130667047Y-95318190D01*
X130667047Y-95318190D02*
X130286095Y-95318190D01*
X138429904Y-94842000D02*
X138334666Y-94794380D01*
X138334666Y-94794380D02*
X138191809Y-94794380D01*
X138191809Y-94794380D02*
X138048952Y-94842000D01*
X138048952Y-94842000D02*
X137953714Y-94937238D01*
X137953714Y-94937238D02*
X137906095Y-95032476D01*
X137906095Y-95032476D02*
X137858476Y-95222952D01*
X137858476Y-95222952D02*
X137858476Y-95365809D01*
X137858476Y-95365809D02*
X137906095Y-95556285D01*
X137906095Y-95556285D02*
X137953714Y-95651523D01*
X137953714Y-95651523D02*
X138048952Y-95746761D01*
X138048952Y-95746761D02*
X138191809Y-95794380D01*
X138191809Y-95794380D02*
X138287047Y-95794380D01*
X138287047Y-95794380D02*
X138429904Y-95746761D01*
X138429904Y-95746761D02*
X138477523Y-95699142D01*
X138477523Y-95699142D02*
X138477523Y-95365809D01*
X138477523Y-95365809D02*
X138287047Y-95365809D01*
X125968095Y-70648380D02*
X125968095Y-69648380D01*
X125968095Y-69648380D02*
X126206190Y-69648380D01*
X126206190Y-69648380D02*
X126349047Y-69696000D01*
X126349047Y-69696000D02*
X126444285Y-69791238D01*
X126444285Y-69791238D02*
X126491904Y-69886476D01*
X126491904Y-69886476D02*
X126539523Y-70076952D01*
X126539523Y-70076952D02*
X126539523Y-70219809D01*
X126539523Y-70219809D02*
X126491904Y-70410285D01*
X126491904Y-70410285D02*
X126444285Y-70505523D01*
X126444285Y-70505523D02*
X126349047Y-70600761D01*
X126349047Y-70600761D02*
X126206190Y-70648380D01*
X126206190Y-70648380D02*
X125968095Y-70648380D01*
X126539523Y-68013142D02*
X126491904Y-68060761D01*
X126491904Y-68060761D02*
X126349047Y-68108380D01*
X126349047Y-68108380D02*
X126253809Y-68108380D01*
X126253809Y-68108380D02*
X126110952Y-68060761D01*
X126110952Y-68060761D02*
X126015714Y-67965523D01*
X126015714Y-67965523D02*
X125968095Y-67870285D01*
X125968095Y-67870285D02*
X125920476Y-67679809D01*
X125920476Y-67679809D02*
X125920476Y-67536952D01*
X125920476Y-67536952D02*
X125968095Y-67346476D01*
X125968095Y-67346476D02*
X126015714Y-67251238D01*
X126015714Y-67251238D02*
X126110952Y-67156000D01*
X126110952Y-67156000D02*
X126253809Y-67108380D01*
X126253809Y-67108380D02*
X126349047Y-67108380D01*
X126349047Y-67108380D02*
X126491904Y-67156000D01*
X126491904Y-67156000D02*
X126539523Y-67203619D01*
X126301428Y-65044571D02*
X126444285Y-65092190D01*
X126444285Y-65092190D02*
X126491904Y-65139809D01*
X126491904Y-65139809D02*
X126539523Y-65235047D01*
X126539523Y-65235047D02*
X126539523Y-65377904D01*
X126539523Y-65377904D02*
X126491904Y-65473142D01*
X126491904Y-65473142D02*
X126444285Y-65520761D01*
X126444285Y-65520761D02*
X126349047Y-65568380D01*
X126349047Y-65568380D02*
X125968095Y-65568380D01*
X125968095Y-65568380D02*
X125968095Y-64568380D01*
X125968095Y-64568380D02*
X126301428Y-64568380D01*
X126301428Y-64568380D02*
X126396666Y-64616000D01*
X126396666Y-64616000D02*
X126444285Y-64663619D01*
X126444285Y-64663619D02*
X126491904Y-64758857D01*
X126491904Y-64758857D02*
X126491904Y-64854095D01*
X126491904Y-64854095D02*
X126444285Y-64949333D01*
X126444285Y-64949333D02*
X126396666Y-64996952D01*
X126396666Y-64996952D02*
X126301428Y-65044571D01*
X126301428Y-65044571D02*
X125968095Y-65044571D01*
X125920476Y-62742666D02*
X126396666Y-62742666D01*
X125825238Y-63028380D02*
X126158571Y-62028380D01*
X126158571Y-62028380D02*
X126491904Y-63028380D01*
X127238095Y-74458380D02*
X127238095Y-73458380D01*
X127238095Y-73458380D02*
X127571428Y-74172666D01*
X127571428Y-74172666D02*
X127904761Y-73458380D01*
X127904761Y-73458380D02*
X127904761Y-74458380D01*
X128380952Y-74458380D02*
X128380952Y-73458380D01*
X129428570Y-74363142D02*
X129380951Y-74410761D01*
X129380951Y-74410761D02*
X129238094Y-74458380D01*
X129238094Y-74458380D02*
X129142856Y-74458380D01*
X129142856Y-74458380D02*
X128999999Y-74410761D01*
X128999999Y-74410761D02*
X128904761Y-74315523D01*
X128904761Y-74315523D02*
X128857142Y-74220285D01*
X128857142Y-74220285D02*
X128809523Y-74029809D01*
X128809523Y-74029809D02*
X128809523Y-73886952D01*
X128809523Y-73886952D02*
X128857142Y-73696476D01*
X128857142Y-73696476D02*
X128904761Y-73601238D01*
X128904761Y-73601238D02*
X128999999Y-73506000D01*
X128999999Y-73506000D02*
X129142856Y-73458380D01*
X129142856Y-73458380D02*
X129238094Y-73458380D01*
X129238094Y-73458380D02*
X129380951Y-73506000D01*
X129380951Y-73506000D02*
X129428570Y-73553619D01*
X130980951Y-73506000D02*
X130885713Y-73458380D01*
X130885713Y-73458380D02*
X130742856Y-73458380D01*
X130742856Y-73458380D02*
X130599999Y-73506000D01*
X130599999Y-73506000D02*
X130504761Y-73601238D01*
X130504761Y-73601238D02*
X130457142Y-73696476D01*
X130457142Y-73696476D02*
X130409523Y-73886952D01*
X130409523Y-73886952D02*
X130409523Y-74029809D01*
X130409523Y-74029809D02*
X130457142Y-74220285D01*
X130457142Y-74220285D02*
X130504761Y-74315523D01*
X130504761Y-74315523D02*
X130599999Y-74410761D01*
X130599999Y-74410761D02*
X130742856Y-74458380D01*
X130742856Y-74458380D02*
X130838094Y-74458380D01*
X130838094Y-74458380D02*
X130980951Y-74410761D01*
X130980951Y-74410761D02*
X131028570Y-74363142D01*
X131028570Y-74363142D02*
X131028570Y-74029809D01*
X131028570Y-74029809D02*
X130838094Y-74029809D01*
X131457142Y-74458380D02*
X131457142Y-73458380D01*
X131457142Y-73458380D02*
X132028570Y-74458380D01*
X132028570Y-74458380D02*
X132028570Y-73458380D01*
X132504761Y-74458380D02*
X132504761Y-73458380D01*
X132504761Y-73458380D02*
X132742856Y-73458380D01*
X132742856Y-73458380D02*
X132885713Y-73506000D01*
X132885713Y-73506000D02*
X132980951Y-73601238D01*
X132980951Y-73601238D02*
X133028570Y-73696476D01*
X133028570Y-73696476D02*
X133076189Y-73886952D01*
X133076189Y-73886952D02*
X133076189Y-74029809D01*
X133076189Y-74029809D02*
X133028570Y-74220285D01*
X133028570Y-74220285D02*
X132980951Y-74315523D01*
X132980951Y-74315523D02*
X132885713Y-74410761D01*
X132885713Y-74410761D02*
X132742856Y-74458380D01*
X132742856Y-74458380D02*
X132504761Y-74458380D01*
X126492000Y-76454000D02*
X125476000Y-76454000D01*
X126492000Y-71374000D02*
X126492000Y-76454000D01*
X125476000Y-71374000D02*
X126492000Y-71374000D01*
%TO.C,JP3*%
X124537380Y-98293333D02*
X125251666Y-98293333D01*
X125251666Y-98293333D02*
X125394523Y-98340952D01*
X125394523Y-98340952D02*
X125489761Y-98436190D01*
X125489761Y-98436190D02*
X125537380Y-98579047D01*
X125537380Y-98579047D02*
X125537380Y-98674285D01*
X125537380Y-97817142D02*
X124537380Y-97817142D01*
X124537380Y-97817142D02*
X124537380Y-97436190D01*
X124537380Y-97436190D02*
X124585000Y-97340952D01*
X124585000Y-97340952D02*
X124632619Y-97293333D01*
X124632619Y-97293333D02*
X124727857Y-97245714D01*
X124727857Y-97245714D02*
X124870714Y-97245714D01*
X124870714Y-97245714D02*
X124965952Y-97293333D01*
X124965952Y-97293333D02*
X125013571Y-97340952D01*
X125013571Y-97340952D02*
X125061190Y-97436190D01*
X125061190Y-97436190D02*
X125061190Y-97817142D01*
X124537380Y-96912380D02*
X124537380Y-96293333D01*
X124537380Y-96293333D02*
X124918333Y-96626666D01*
X124918333Y-96626666D02*
X124918333Y-96483809D01*
X124918333Y-96483809D02*
X124965952Y-96388571D01*
X124965952Y-96388571D02*
X125013571Y-96340952D01*
X125013571Y-96340952D02*
X125108809Y-96293333D01*
X125108809Y-96293333D02*
X125346904Y-96293333D01*
X125346904Y-96293333D02*
X125442142Y-96340952D01*
X125442142Y-96340952D02*
X125489761Y-96388571D01*
X125489761Y-96388571D02*
X125537380Y-96483809D01*
X125537380Y-96483809D02*
X125537380Y-96769523D01*
X125537380Y-96769523D02*
X125489761Y-96864761D01*
X125489761Y-96864761D02*
X125442142Y-96912380D01*
%TO.C,JP4*%
X147397380Y-98293333D02*
X148111666Y-98293333D01*
X148111666Y-98293333D02*
X148254523Y-98340952D01*
X148254523Y-98340952D02*
X148349761Y-98436190D01*
X148349761Y-98436190D02*
X148397380Y-98579047D01*
X148397380Y-98579047D02*
X148397380Y-98674285D01*
X148397380Y-97817142D02*
X147397380Y-97817142D01*
X147397380Y-97817142D02*
X147397380Y-97436190D01*
X147397380Y-97436190D02*
X147445000Y-97340952D01*
X147445000Y-97340952D02*
X147492619Y-97293333D01*
X147492619Y-97293333D02*
X147587857Y-97245714D01*
X147587857Y-97245714D02*
X147730714Y-97245714D01*
X147730714Y-97245714D02*
X147825952Y-97293333D01*
X147825952Y-97293333D02*
X147873571Y-97340952D01*
X147873571Y-97340952D02*
X147921190Y-97436190D01*
X147921190Y-97436190D02*
X147921190Y-97817142D01*
X147730714Y-96388571D02*
X148397380Y-96388571D01*
X147349761Y-96626666D02*
X148064047Y-96864761D01*
X148064047Y-96864761D02*
X148064047Y-96245714D01*
%TO.C,JP2*%
X118800666Y-51183380D02*
X118800666Y-51897666D01*
X118800666Y-51897666D02*
X118753047Y-52040523D01*
X118753047Y-52040523D02*
X118657809Y-52135761D01*
X118657809Y-52135761D02*
X118514952Y-52183380D01*
X118514952Y-52183380D02*
X118419714Y-52183380D01*
X119276857Y-52183380D02*
X119276857Y-51183380D01*
X119276857Y-51183380D02*
X119657809Y-51183380D01*
X119657809Y-51183380D02*
X119753047Y-51231000D01*
X119753047Y-51231000D02*
X119800666Y-51278619D01*
X119800666Y-51278619D02*
X119848285Y-51373857D01*
X119848285Y-51373857D02*
X119848285Y-51516714D01*
X119848285Y-51516714D02*
X119800666Y-51611952D01*
X119800666Y-51611952D02*
X119753047Y-51659571D01*
X119753047Y-51659571D02*
X119657809Y-51707190D01*
X119657809Y-51707190D02*
X119276857Y-51707190D01*
X120229238Y-51278619D02*
X120276857Y-51231000D01*
X120276857Y-51231000D02*
X120372095Y-51183380D01*
X120372095Y-51183380D02*
X120610190Y-51183380D01*
X120610190Y-51183380D02*
X120705428Y-51231000D01*
X120705428Y-51231000D02*
X120753047Y-51278619D01*
X120753047Y-51278619D02*
X120800666Y-51373857D01*
X120800666Y-51373857D02*
X120800666Y-51469095D01*
X120800666Y-51469095D02*
X120753047Y-51611952D01*
X120753047Y-51611952D02*
X120181619Y-52183380D01*
X120181619Y-52183380D02*
X120800666Y-52183380D01*
%TO.C,JP13*%
X153630476Y-50929380D02*
X153630476Y-51643666D01*
X153630476Y-51643666D02*
X153582857Y-51786523D01*
X153582857Y-51786523D02*
X153487619Y-51881761D01*
X153487619Y-51881761D02*
X153344762Y-51929380D01*
X153344762Y-51929380D02*
X153249524Y-51929380D01*
X154106667Y-51929380D02*
X154106667Y-50929380D01*
X154106667Y-50929380D02*
X154487619Y-50929380D01*
X154487619Y-50929380D02*
X154582857Y-50977000D01*
X154582857Y-50977000D02*
X154630476Y-51024619D01*
X154630476Y-51024619D02*
X154678095Y-51119857D01*
X154678095Y-51119857D02*
X154678095Y-51262714D01*
X154678095Y-51262714D02*
X154630476Y-51357952D01*
X154630476Y-51357952D02*
X154582857Y-51405571D01*
X154582857Y-51405571D02*
X154487619Y-51453190D01*
X154487619Y-51453190D02*
X154106667Y-51453190D01*
X155630476Y-51929380D02*
X155059048Y-51929380D01*
X155344762Y-51929380D02*
X155344762Y-50929380D01*
X155344762Y-50929380D02*
X155249524Y-51072238D01*
X155249524Y-51072238D02*
X155154286Y-51167476D01*
X155154286Y-51167476D02*
X155059048Y-51215095D01*
X155963810Y-50929380D02*
X156582857Y-50929380D01*
X156582857Y-50929380D02*
X156249524Y-51310333D01*
X156249524Y-51310333D02*
X156392381Y-51310333D01*
X156392381Y-51310333D02*
X156487619Y-51357952D01*
X156487619Y-51357952D02*
X156535238Y-51405571D01*
X156535238Y-51405571D02*
X156582857Y-51500809D01*
X156582857Y-51500809D02*
X156582857Y-51738904D01*
X156582857Y-51738904D02*
X156535238Y-51834142D01*
X156535238Y-51834142D02*
X156487619Y-51881761D01*
X156487619Y-51881761D02*
X156392381Y-51929380D01*
X156392381Y-51929380D02*
X156106667Y-51929380D01*
X156106667Y-51929380D02*
X156011429Y-51881761D01*
X156011429Y-51881761D02*
X155963810Y-51834142D01*
D11*
%TO.C,U2*%
X126746095Y-93093380D02*
X126746095Y-93902904D01*
X126746095Y-93902904D02*
X126793714Y-93998142D01*
X126793714Y-93998142D02*
X126841333Y-94045761D01*
X126841333Y-94045761D02*
X126936571Y-94093380D01*
X126936571Y-94093380D02*
X127127047Y-94093380D01*
X127127047Y-94093380D02*
X127222285Y-94045761D01*
X127222285Y-94045761D02*
X127269904Y-93998142D01*
X127269904Y-93998142D02*
X127317523Y-93902904D01*
X127317523Y-93902904D02*
X127317523Y-93093380D01*
X127746095Y-93188619D02*
X127793714Y-93141000D01*
X127793714Y-93141000D02*
X127888952Y-93093380D01*
X127888952Y-93093380D02*
X128127047Y-93093380D01*
X128127047Y-93093380D02*
X128222285Y-93141000D01*
X128222285Y-93141000D02*
X128269904Y-93188619D01*
X128269904Y-93188619D02*
X128317523Y-93283857D01*
X128317523Y-93283857D02*
X128317523Y-93379095D01*
X128317523Y-93379095D02*
X128269904Y-93521952D01*
X128269904Y-93521952D02*
X127698476Y-94093380D01*
X127698476Y-94093380D02*
X128317523Y-94093380D01*
%TO.C,U1*%
X122936095Y-91823380D02*
X122936095Y-92632904D01*
X122936095Y-92632904D02*
X122983714Y-92728142D01*
X122983714Y-92728142D02*
X123031333Y-92775761D01*
X123031333Y-92775761D02*
X123126571Y-92823380D01*
X123126571Y-92823380D02*
X123317047Y-92823380D01*
X123317047Y-92823380D02*
X123412285Y-92775761D01*
X123412285Y-92775761D02*
X123459904Y-92728142D01*
X123459904Y-92728142D02*
X123507523Y-92632904D01*
X123507523Y-92632904D02*
X123507523Y-91823380D01*
X124507523Y-92823380D02*
X123936095Y-92823380D01*
X124221809Y-92823380D02*
X124221809Y-91823380D01*
X124221809Y-91823380D02*
X124126571Y-91966238D01*
X124126571Y-91966238D02*
X124031333Y-92061476D01*
X124031333Y-92061476D02*
X123936095Y-92109095D01*
D10*
%TO.C,VR4*%
X158579092Y-90520132D02*
X159583375Y-90185371D01*
X159583375Y-90185371D02*
X158579092Y-89850610D01*
X159583375Y-88941973D02*
X159105145Y-89276734D01*
X159583375Y-89515849D02*
X158579092Y-89515849D01*
X158579092Y-89515849D02*
X158579092Y-89133265D01*
X158579092Y-89133265D02*
X158626915Y-89037619D01*
X158626915Y-89037619D02*
X158674738Y-88989796D01*
X158674738Y-88989796D02*
X158770384Y-88941973D01*
X158770384Y-88941973D02*
X158913853Y-88941973D01*
X158913853Y-88941973D02*
X159009499Y-88989796D01*
X159009499Y-88989796D02*
X159057322Y-89037619D01*
X159057322Y-89037619D02*
X159105145Y-89133265D01*
X159105145Y-89133265D02*
X159105145Y-89515849D01*
X158913853Y-88081159D02*
X159583375Y-88081159D01*
X158531269Y-88320274D02*
X159248614Y-88559389D01*
X159248614Y-88559389D02*
X159248614Y-87937690D01*
%TO.C,VR3*%
X158579092Y-79725132D02*
X159583375Y-79390371D01*
X159583375Y-79390371D02*
X158579092Y-79055610D01*
X159583375Y-78146973D02*
X159105145Y-78481734D01*
X159583375Y-78720849D02*
X158579092Y-78720849D01*
X158579092Y-78720849D02*
X158579092Y-78338265D01*
X158579092Y-78338265D02*
X158626915Y-78242619D01*
X158626915Y-78242619D02*
X158674738Y-78194796D01*
X158674738Y-78194796D02*
X158770384Y-78146973D01*
X158770384Y-78146973D02*
X158913853Y-78146973D01*
X158913853Y-78146973D02*
X159009499Y-78194796D01*
X159009499Y-78194796D02*
X159057322Y-78242619D01*
X159057322Y-78242619D02*
X159105145Y-78338265D01*
X159105145Y-78338265D02*
X159105145Y-78720849D01*
X158579092Y-77812212D02*
X158579092Y-77190513D01*
X158579092Y-77190513D02*
X158961676Y-77525274D01*
X158961676Y-77525274D02*
X158961676Y-77381805D01*
X158961676Y-77381805D02*
X159009499Y-77286159D01*
X159009499Y-77286159D02*
X159057322Y-77238336D01*
X159057322Y-77238336D02*
X159152968Y-77190513D01*
X159152968Y-77190513D02*
X159392083Y-77190513D01*
X159392083Y-77190513D02*
X159487729Y-77238336D01*
X159487729Y-77238336D02*
X159535552Y-77286159D01*
X159535552Y-77286159D02*
X159583375Y-77381805D01*
X159583375Y-77381805D02*
X159583375Y-77668743D01*
X159583375Y-77668743D02*
X159535552Y-77764389D01*
X159535552Y-77764389D02*
X159487729Y-77812212D01*
%TO.C,VR2*%
X158579092Y-68930132D02*
X159583375Y-68595371D01*
X159583375Y-68595371D02*
X158579092Y-68260610D01*
X159583375Y-67351973D02*
X159105145Y-67686734D01*
X159583375Y-67925849D02*
X158579092Y-67925849D01*
X158579092Y-67925849D02*
X158579092Y-67543265D01*
X158579092Y-67543265D02*
X158626915Y-67447619D01*
X158626915Y-67447619D02*
X158674738Y-67399796D01*
X158674738Y-67399796D02*
X158770384Y-67351973D01*
X158770384Y-67351973D02*
X158913853Y-67351973D01*
X158913853Y-67351973D02*
X159009499Y-67399796D01*
X159009499Y-67399796D02*
X159057322Y-67447619D01*
X159057322Y-67447619D02*
X159105145Y-67543265D01*
X159105145Y-67543265D02*
X159105145Y-67925849D01*
X158674738Y-66969389D02*
X158626915Y-66921566D01*
X158626915Y-66921566D02*
X158579092Y-66825920D01*
X158579092Y-66825920D02*
X158579092Y-66586805D01*
X158579092Y-66586805D02*
X158626915Y-66491159D01*
X158626915Y-66491159D02*
X158674738Y-66443336D01*
X158674738Y-66443336D02*
X158770384Y-66395513D01*
X158770384Y-66395513D02*
X158866030Y-66395513D01*
X158866030Y-66395513D02*
X159009499Y-66443336D01*
X159009499Y-66443336D02*
X159583375Y-67017212D01*
X159583375Y-67017212D02*
X159583375Y-66395513D01*
%TO.C,VR1*%
X158419672Y-58135132D02*
X159423955Y-57800371D01*
X159423955Y-57800371D02*
X158419672Y-57465610D01*
X159423955Y-56556973D02*
X158945725Y-56891734D01*
X159423955Y-57130849D02*
X158419672Y-57130849D01*
X158419672Y-57130849D02*
X158419672Y-56748265D01*
X158419672Y-56748265D02*
X158467495Y-56652619D01*
X158467495Y-56652619D02*
X158515318Y-56604796D01*
X158515318Y-56604796D02*
X158610964Y-56556973D01*
X158610964Y-56556973D02*
X158754433Y-56556973D01*
X158754433Y-56556973D02*
X158850079Y-56604796D01*
X158850079Y-56604796D02*
X158897902Y-56652619D01*
X158897902Y-56652619D02*
X158945725Y-56748265D01*
X158945725Y-56748265D02*
X158945725Y-57130849D01*
X159423955Y-55600513D02*
X159423955Y-56174389D01*
X159423955Y-55887451D02*
X158419672Y-55887451D01*
X158419672Y-55887451D02*
X158563141Y-55983097D01*
X158563141Y-55983097D02*
X158658787Y-56078743D01*
X158658787Y-56078743D02*
X158706610Y-56174389D01*
D11*
%TO.C,SW1*%
X141211667Y-61279761D02*
X141354524Y-61327380D01*
X141354524Y-61327380D02*
X141592619Y-61327380D01*
X141592619Y-61327380D02*
X141687857Y-61279761D01*
X141687857Y-61279761D02*
X141735476Y-61232142D01*
X141735476Y-61232142D02*
X141783095Y-61136904D01*
X141783095Y-61136904D02*
X141783095Y-61041666D01*
X141783095Y-61041666D02*
X141735476Y-60946428D01*
X141735476Y-60946428D02*
X141687857Y-60898809D01*
X141687857Y-60898809D02*
X141592619Y-60851190D01*
X141592619Y-60851190D02*
X141402143Y-60803571D01*
X141402143Y-60803571D02*
X141306905Y-60755952D01*
X141306905Y-60755952D02*
X141259286Y-60708333D01*
X141259286Y-60708333D02*
X141211667Y-60613095D01*
X141211667Y-60613095D02*
X141211667Y-60517857D01*
X141211667Y-60517857D02*
X141259286Y-60422619D01*
X141259286Y-60422619D02*
X141306905Y-60375000D01*
X141306905Y-60375000D02*
X141402143Y-60327380D01*
X141402143Y-60327380D02*
X141640238Y-60327380D01*
X141640238Y-60327380D02*
X141783095Y-60375000D01*
X142116429Y-60327380D02*
X142354524Y-61327380D01*
X142354524Y-61327380D02*
X142545000Y-60613095D01*
X142545000Y-60613095D02*
X142735476Y-61327380D01*
X142735476Y-61327380D02*
X142973572Y-60327380D01*
X143878333Y-61327380D02*
X143306905Y-61327380D01*
X143592619Y-61327380D02*
X143592619Y-60327380D01*
X143592619Y-60327380D02*
X143497381Y-60470238D01*
X143497381Y-60470238D02*
X143402143Y-60565476D01*
X143402143Y-60565476D02*
X143306905Y-60613095D01*
D10*
%TO.C,R4*%
X153173333Y-95117380D02*
X152840000Y-94641190D01*
X152601905Y-95117380D02*
X152601905Y-94117380D01*
X152601905Y-94117380D02*
X152982857Y-94117380D01*
X152982857Y-94117380D02*
X153078095Y-94165000D01*
X153078095Y-94165000D02*
X153125714Y-94212619D01*
X153125714Y-94212619D02*
X153173333Y-94307857D01*
X153173333Y-94307857D02*
X153173333Y-94450714D01*
X153173333Y-94450714D02*
X153125714Y-94545952D01*
X153125714Y-94545952D02*
X153078095Y-94593571D01*
X153078095Y-94593571D02*
X152982857Y-94641190D01*
X152982857Y-94641190D02*
X152601905Y-94641190D01*
X154030476Y-94450714D02*
X154030476Y-95117380D01*
X153792381Y-94069761D02*
X153554286Y-94784047D01*
X153554286Y-94784047D02*
X154173333Y-94784047D01*
%TO.C,R3*%
X153173333Y-84322380D02*
X152840000Y-83846190D01*
X152601905Y-84322380D02*
X152601905Y-83322380D01*
X152601905Y-83322380D02*
X152982857Y-83322380D01*
X152982857Y-83322380D02*
X153078095Y-83370000D01*
X153078095Y-83370000D02*
X153125714Y-83417619D01*
X153125714Y-83417619D02*
X153173333Y-83512857D01*
X153173333Y-83512857D02*
X153173333Y-83655714D01*
X153173333Y-83655714D02*
X153125714Y-83750952D01*
X153125714Y-83750952D02*
X153078095Y-83798571D01*
X153078095Y-83798571D02*
X152982857Y-83846190D01*
X152982857Y-83846190D02*
X152601905Y-83846190D01*
X153506667Y-83322380D02*
X154125714Y-83322380D01*
X154125714Y-83322380D02*
X153792381Y-83703333D01*
X153792381Y-83703333D02*
X153935238Y-83703333D01*
X153935238Y-83703333D02*
X154030476Y-83750952D01*
X154030476Y-83750952D02*
X154078095Y-83798571D01*
X154078095Y-83798571D02*
X154125714Y-83893809D01*
X154125714Y-83893809D02*
X154125714Y-84131904D01*
X154125714Y-84131904D02*
X154078095Y-84227142D01*
X154078095Y-84227142D02*
X154030476Y-84274761D01*
X154030476Y-84274761D02*
X153935238Y-84322380D01*
X153935238Y-84322380D02*
X153649524Y-84322380D01*
X153649524Y-84322380D02*
X153554286Y-84274761D01*
X153554286Y-84274761D02*
X153506667Y-84227142D01*
%TO.C,R2*%
X153173333Y-73527380D02*
X152840000Y-73051190D01*
X152601905Y-73527380D02*
X152601905Y-72527380D01*
X152601905Y-72527380D02*
X152982857Y-72527380D01*
X152982857Y-72527380D02*
X153078095Y-72575000D01*
X153078095Y-72575000D02*
X153125714Y-72622619D01*
X153125714Y-72622619D02*
X153173333Y-72717857D01*
X153173333Y-72717857D02*
X153173333Y-72860714D01*
X153173333Y-72860714D02*
X153125714Y-72955952D01*
X153125714Y-72955952D02*
X153078095Y-73003571D01*
X153078095Y-73003571D02*
X152982857Y-73051190D01*
X152982857Y-73051190D02*
X152601905Y-73051190D01*
X153554286Y-72622619D02*
X153601905Y-72575000D01*
X153601905Y-72575000D02*
X153697143Y-72527380D01*
X153697143Y-72527380D02*
X153935238Y-72527380D01*
X153935238Y-72527380D02*
X154030476Y-72575000D01*
X154030476Y-72575000D02*
X154078095Y-72622619D01*
X154078095Y-72622619D02*
X154125714Y-72717857D01*
X154125714Y-72717857D02*
X154125714Y-72813095D01*
X154125714Y-72813095D02*
X154078095Y-72955952D01*
X154078095Y-72955952D02*
X153506667Y-73527380D01*
X153506667Y-73527380D02*
X154125714Y-73527380D01*
%TO.C,R1*%
X153173333Y-62732380D02*
X152840000Y-62256190D01*
X152601905Y-62732380D02*
X152601905Y-61732380D01*
X152601905Y-61732380D02*
X152982857Y-61732380D01*
X152982857Y-61732380D02*
X153078095Y-61780000D01*
X153078095Y-61780000D02*
X153125714Y-61827619D01*
X153125714Y-61827619D02*
X153173333Y-61922857D01*
X153173333Y-61922857D02*
X153173333Y-62065714D01*
X153173333Y-62065714D02*
X153125714Y-62160952D01*
X153125714Y-62160952D02*
X153078095Y-62208571D01*
X153078095Y-62208571D02*
X152982857Y-62256190D01*
X152982857Y-62256190D02*
X152601905Y-62256190D01*
X154125714Y-62732380D02*
X153554286Y-62732380D01*
X153840000Y-62732380D02*
X153840000Y-61732380D01*
X153840000Y-61732380D02*
X153744762Y-61875238D01*
X153744762Y-61875238D02*
X153649524Y-61970476D01*
X153649524Y-61970476D02*
X153554286Y-62018095D01*
%TO.C,JP10*%
X145442980Y-56783323D02*
X146157266Y-56783323D01*
X146157266Y-56783323D02*
X146300123Y-56830942D01*
X146300123Y-56830942D02*
X146395361Y-56926180D01*
X146395361Y-56926180D02*
X146442980Y-57069037D01*
X146442980Y-57069037D02*
X146442980Y-57164275D01*
X146442980Y-56307132D02*
X145442980Y-56307132D01*
X145442980Y-56307132D02*
X145442980Y-55926180D01*
X145442980Y-55926180D02*
X145490600Y-55830942D01*
X145490600Y-55830942D02*
X145538219Y-55783323D01*
X145538219Y-55783323D02*
X145633457Y-55735704D01*
X145633457Y-55735704D02*
X145776314Y-55735704D01*
X145776314Y-55735704D02*
X145871552Y-55783323D01*
X145871552Y-55783323D02*
X145919171Y-55830942D01*
X145919171Y-55830942D02*
X145966790Y-55926180D01*
X145966790Y-55926180D02*
X145966790Y-56307132D01*
X146442980Y-54783323D02*
X146442980Y-55354751D01*
X146442980Y-55069037D02*
X145442980Y-55069037D01*
X145442980Y-55069037D02*
X145585838Y-55164275D01*
X145585838Y-55164275D02*
X145681076Y-55259513D01*
X145681076Y-55259513D02*
X145728695Y-55354751D01*
X145442980Y-54164275D02*
X145442980Y-54069037D01*
X145442980Y-54069037D02*
X145490600Y-53973799D01*
X145490600Y-53973799D02*
X145538219Y-53926180D01*
X145538219Y-53926180D02*
X145633457Y-53878561D01*
X145633457Y-53878561D02*
X145823933Y-53830942D01*
X145823933Y-53830942D02*
X146062028Y-53830942D01*
X146062028Y-53830942D02*
X146252504Y-53878561D01*
X146252504Y-53878561D02*
X146347742Y-53926180D01*
X146347742Y-53926180D02*
X146395361Y-53973799D01*
X146395361Y-53973799D02*
X146442980Y-54069037D01*
X146442980Y-54069037D02*
X146442980Y-54164275D01*
X146442980Y-54164275D02*
X146395361Y-54259513D01*
X146395361Y-54259513D02*
X146347742Y-54307132D01*
X146347742Y-54307132D02*
X146252504Y-54354751D01*
X146252504Y-54354751D02*
X146062028Y-54402370D01*
X146062028Y-54402370D02*
X145823933Y-54402370D01*
X145823933Y-54402370D02*
X145633457Y-54354751D01*
X145633457Y-54354751D02*
X145538219Y-54307132D01*
X145538219Y-54307132D02*
X145490600Y-54259513D01*
X145490600Y-54259513D02*
X145442980Y-54164275D01*
%TO.C,C4*%
X155753333Y-84737142D02*
X155705714Y-84784761D01*
X155705714Y-84784761D02*
X155562857Y-84832380D01*
X155562857Y-84832380D02*
X155467619Y-84832380D01*
X155467619Y-84832380D02*
X155324762Y-84784761D01*
X155324762Y-84784761D02*
X155229524Y-84689523D01*
X155229524Y-84689523D02*
X155181905Y-84594285D01*
X155181905Y-84594285D02*
X155134286Y-84403809D01*
X155134286Y-84403809D02*
X155134286Y-84260952D01*
X155134286Y-84260952D02*
X155181905Y-84070476D01*
X155181905Y-84070476D02*
X155229524Y-83975238D01*
X155229524Y-83975238D02*
X155324762Y-83880000D01*
X155324762Y-83880000D02*
X155467619Y-83832380D01*
X155467619Y-83832380D02*
X155562857Y-83832380D01*
X155562857Y-83832380D02*
X155705714Y-83880000D01*
X155705714Y-83880000D02*
X155753333Y-83927619D01*
X156610476Y-84165714D02*
X156610476Y-84832380D01*
X156372381Y-83784761D02*
X156134286Y-84499047D01*
X156134286Y-84499047D02*
X156753333Y-84499047D01*
%TO.C,C3*%
X155753333Y-73942142D02*
X155705714Y-73989761D01*
X155705714Y-73989761D02*
X155562857Y-74037380D01*
X155562857Y-74037380D02*
X155467619Y-74037380D01*
X155467619Y-74037380D02*
X155324762Y-73989761D01*
X155324762Y-73989761D02*
X155229524Y-73894523D01*
X155229524Y-73894523D02*
X155181905Y-73799285D01*
X155181905Y-73799285D02*
X155134286Y-73608809D01*
X155134286Y-73608809D02*
X155134286Y-73465952D01*
X155134286Y-73465952D02*
X155181905Y-73275476D01*
X155181905Y-73275476D02*
X155229524Y-73180238D01*
X155229524Y-73180238D02*
X155324762Y-73085000D01*
X155324762Y-73085000D02*
X155467619Y-73037380D01*
X155467619Y-73037380D02*
X155562857Y-73037380D01*
X155562857Y-73037380D02*
X155705714Y-73085000D01*
X155705714Y-73085000D02*
X155753333Y-73132619D01*
X156086667Y-73037380D02*
X156705714Y-73037380D01*
X156705714Y-73037380D02*
X156372381Y-73418333D01*
X156372381Y-73418333D02*
X156515238Y-73418333D01*
X156515238Y-73418333D02*
X156610476Y-73465952D01*
X156610476Y-73465952D02*
X156658095Y-73513571D01*
X156658095Y-73513571D02*
X156705714Y-73608809D01*
X156705714Y-73608809D02*
X156705714Y-73846904D01*
X156705714Y-73846904D02*
X156658095Y-73942142D01*
X156658095Y-73942142D02*
X156610476Y-73989761D01*
X156610476Y-73989761D02*
X156515238Y-74037380D01*
X156515238Y-74037380D02*
X156229524Y-74037380D01*
X156229524Y-74037380D02*
X156134286Y-73989761D01*
X156134286Y-73989761D02*
X156086667Y-73942142D01*
%TO.C,C2*%
X155713333Y-63147142D02*
X155665714Y-63194761D01*
X155665714Y-63194761D02*
X155522857Y-63242380D01*
X155522857Y-63242380D02*
X155427619Y-63242380D01*
X155427619Y-63242380D02*
X155284762Y-63194761D01*
X155284762Y-63194761D02*
X155189524Y-63099523D01*
X155189524Y-63099523D02*
X155141905Y-63004285D01*
X155141905Y-63004285D02*
X155094286Y-62813809D01*
X155094286Y-62813809D02*
X155094286Y-62670952D01*
X155094286Y-62670952D02*
X155141905Y-62480476D01*
X155141905Y-62480476D02*
X155189524Y-62385238D01*
X155189524Y-62385238D02*
X155284762Y-62290000D01*
X155284762Y-62290000D02*
X155427619Y-62242380D01*
X155427619Y-62242380D02*
X155522857Y-62242380D01*
X155522857Y-62242380D02*
X155665714Y-62290000D01*
X155665714Y-62290000D02*
X155713333Y-62337619D01*
X156094286Y-62337619D02*
X156141905Y-62290000D01*
X156141905Y-62290000D02*
X156237143Y-62242380D01*
X156237143Y-62242380D02*
X156475238Y-62242380D01*
X156475238Y-62242380D02*
X156570476Y-62290000D01*
X156570476Y-62290000D02*
X156618095Y-62337619D01*
X156618095Y-62337619D02*
X156665714Y-62432857D01*
X156665714Y-62432857D02*
X156665714Y-62528095D01*
X156665714Y-62528095D02*
X156618095Y-62670952D01*
X156618095Y-62670952D02*
X156046667Y-63242380D01*
X156046667Y-63242380D02*
X156665714Y-63242380D01*
%TO.C,C1*%
X155753333Y-56752142D02*
X155705714Y-56799761D01*
X155705714Y-56799761D02*
X155562857Y-56847380D01*
X155562857Y-56847380D02*
X155467619Y-56847380D01*
X155467619Y-56847380D02*
X155324762Y-56799761D01*
X155324762Y-56799761D02*
X155229524Y-56704523D01*
X155229524Y-56704523D02*
X155181905Y-56609285D01*
X155181905Y-56609285D02*
X155134286Y-56418809D01*
X155134286Y-56418809D02*
X155134286Y-56275952D01*
X155134286Y-56275952D02*
X155181905Y-56085476D01*
X155181905Y-56085476D02*
X155229524Y-55990238D01*
X155229524Y-55990238D02*
X155324762Y-55895000D01*
X155324762Y-55895000D02*
X155467619Y-55847380D01*
X155467619Y-55847380D02*
X155562857Y-55847380D01*
X155562857Y-55847380D02*
X155705714Y-55895000D01*
X155705714Y-55895000D02*
X155753333Y-55942619D01*
X156705714Y-56847380D02*
X156134286Y-56847380D01*
X156420000Y-56847380D02*
X156420000Y-55847380D01*
X156420000Y-55847380D02*
X156324762Y-55990238D01*
X156324762Y-55990238D02*
X156229524Y-56085476D01*
X156229524Y-56085476D02*
X156134286Y-56133095D01*
D11*
%TO.C,B2*%
X135790238Y-60803571D02*
X135933095Y-60851190D01*
X135933095Y-60851190D02*
X135980714Y-60898809D01*
X135980714Y-60898809D02*
X136028333Y-60994047D01*
X136028333Y-60994047D02*
X136028333Y-61136904D01*
X136028333Y-61136904D02*
X135980714Y-61232142D01*
X135980714Y-61232142D02*
X135933095Y-61279761D01*
X135933095Y-61279761D02*
X135837857Y-61327380D01*
X135837857Y-61327380D02*
X135456905Y-61327380D01*
X135456905Y-61327380D02*
X135456905Y-60327380D01*
X135456905Y-60327380D02*
X135790238Y-60327380D01*
X135790238Y-60327380D02*
X135885476Y-60375000D01*
X135885476Y-60375000D02*
X135933095Y-60422619D01*
X135933095Y-60422619D02*
X135980714Y-60517857D01*
X135980714Y-60517857D02*
X135980714Y-60613095D01*
X135980714Y-60613095D02*
X135933095Y-60708333D01*
X135933095Y-60708333D02*
X135885476Y-60755952D01*
X135885476Y-60755952D02*
X135790238Y-60803571D01*
X135790238Y-60803571D02*
X135456905Y-60803571D01*
X136409286Y-60422619D02*
X136456905Y-60375000D01*
X136456905Y-60375000D02*
X136552143Y-60327380D01*
X136552143Y-60327380D02*
X136790238Y-60327380D01*
X136790238Y-60327380D02*
X136885476Y-60375000D01*
X136885476Y-60375000D02*
X136933095Y-60422619D01*
X136933095Y-60422619D02*
X136980714Y-60517857D01*
X136980714Y-60517857D02*
X136980714Y-60613095D01*
X136980714Y-60613095D02*
X136933095Y-60755952D01*
X136933095Y-60755952D02*
X136361667Y-61327380D01*
X136361667Y-61327380D02*
X136980714Y-61327380D01*
%TO.C,B1*%
X129440238Y-60803571D02*
X129583095Y-60851190D01*
X129583095Y-60851190D02*
X129630714Y-60898809D01*
X129630714Y-60898809D02*
X129678333Y-60994047D01*
X129678333Y-60994047D02*
X129678333Y-61136904D01*
X129678333Y-61136904D02*
X129630714Y-61232142D01*
X129630714Y-61232142D02*
X129583095Y-61279761D01*
X129583095Y-61279761D02*
X129487857Y-61327380D01*
X129487857Y-61327380D02*
X129106905Y-61327380D01*
X129106905Y-61327380D02*
X129106905Y-60327380D01*
X129106905Y-60327380D02*
X129440238Y-60327380D01*
X129440238Y-60327380D02*
X129535476Y-60375000D01*
X129535476Y-60375000D02*
X129583095Y-60422619D01*
X129583095Y-60422619D02*
X129630714Y-60517857D01*
X129630714Y-60517857D02*
X129630714Y-60613095D01*
X129630714Y-60613095D02*
X129583095Y-60708333D01*
X129583095Y-60708333D02*
X129535476Y-60755952D01*
X129535476Y-60755952D02*
X129440238Y-60803571D01*
X129440238Y-60803571D02*
X129106905Y-60803571D01*
X130630714Y-61327380D02*
X130059286Y-61327380D01*
X130345000Y-61327380D02*
X130345000Y-60327380D01*
X130345000Y-60327380D02*
X130249762Y-60470238D01*
X130249762Y-60470238D02*
X130154524Y-60565476D01*
X130154524Y-60565476D02*
X130059286Y-60613095D01*
D12*
%TO.C,JP3*%
X126610000Y-96130000D02*
X127940000Y-96130000D01*
X129210000Y-98790000D02*
X129210000Y-96130000D01*
X129210000Y-96130000D02*
X147050000Y-96130000D01*
X147050000Y-98790000D02*
X147050000Y-96130000D01*
X129210000Y-98790000D02*
X147050000Y-98790000D01*
X126610000Y-97460000D02*
X126610000Y-96130000D01*
%TO.C,JP4*%
X164830000Y-98790000D02*
X164830000Y-96130000D01*
X152070000Y-98790000D02*
X164830000Y-98790000D01*
X149470000Y-96130000D02*
X150800000Y-96130000D01*
X152070000Y-96130000D02*
X164830000Y-96130000D01*
X152070000Y-98790000D02*
X152070000Y-96130000D01*
X149470000Y-97460000D02*
X149470000Y-96130000D01*
%TO.C,JP2*%
X120066000Y-50530000D02*
X142986000Y-50530000D01*
X142986000Y-50530000D02*
X142986000Y-47870000D01*
X117466000Y-49200000D02*
X117466000Y-47870000D01*
X120066000Y-47870000D02*
X142986000Y-47870000D01*
X120066000Y-50530000D02*
X120066000Y-47870000D01*
X117466000Y-47870000D02*
X118796000Y-47870000D01*
%TO.C,JP13*%
X144390000Y-47870000D02*
X145720000Y-47870000D01*
X146990000Y-50530000D02*
X146990000Y-47870000D01*
X146990000Y-47870000D02*
X164830000Y-47870000D01*
X164830000Y-50530000D02*
X164830000Y-47870000D01*
X146990000Y-50530000D02*
X164830000Y-50530000D01*
X144390000Y-49200000D02*
X144390000Y-47870000D01*
%TO.C,G\u002A\u002A\u002A*%
G36*
X143307607Y-84051328D02*
G01*
X143444883Y-84157607D01*
X143534370Y-84302284D01*
X143554894Y-84458807D01*
X143542402Y-84510000D01*
X143490097Y-84600522D01*
X143412879Y-84697500D01*
X143356473Y-84749616D01*
X143287168Y-84782660D01*
X143182353Y-84800895D01*
X143019414Y-84808580D01*
X142815795Y-84810000D01*
X142585543Y-84808131D01*
X142431975Y-84799409D01*
X142331599Y-84779166D01*
X142260925Y-84742733D01*
X142198295Y-84687273D01*
X142101378Y-84531181D01*
X142085401Y-84360656D01*
X142140156Y-84200790D01*
X142255435Y-84076673D01*
X142421028Y-84013399D01*
X142473837Y-84010000D01*
X142582352Y-84023038D01*
X142622508Y-84078534D01*
X142626410Y-84134048D01*
X142595139Y-84240658D01*
X142501164Y-84289468D01*
X142401907Y-84347803D01*
X142379462Y-84431431D01*
X142435614Y-84506291D01*
X142488639Y-84528486D01*
X142645602Y-84552614D01*
X142836535Y-84558173D01*
X143020719Y-84546355D01*
X143157431Y-84518352D01*
X143180789Y-84508241D01*
X143266222Y-84436980D01*
X143251945Y-84369104D01*
X143138429Y-84306438D01*
X143127396Y-84302508D01*
X143013157Y-84237769D01*
X142977236Y-84138880D01*
X142977101Y-84130109D01*
X142992104Y-84047171D01*
X143056778Y-84014435D01*
X143143713Y-84010000D01*
X143307607Y-84051328D01*
G37*
G36*
X142585543Y-83708131D02*
G01*
X142431975Y-83699409D01*
X142331599Y-83679166D01*
X142260925Y-83642733D01*
X142198295Y-83587273D01*
X142095853Y-83426174D01*
X142080399Y-83338715D01*
X142378764Y-83338715D01*
X142427361Y-83415365D01*
X142455162Y-83429651D01*
X142599826Y-83461010D01*
X142777340Y-83466348D01*
X142960784Y-83449580D01*
X143123235Y-83414623D01*
X143237771Y-83365392D01*
X143277692Y-83310000D01*
X143238725Y-83251989D01*
X143180789Y-83211760D01*
X143063733Y-83179617D01*
X142888285Y-83163342D01*
X142695166Y-83164124D01*
X142525096Y-83183154D01*
X142488639Y-83191515D01*
X142401060Y-83250794D01*
X142378764Y-83338715D01*
X142080399Y-83338715D01*
X142075325Y-83310000D01*
X142122158Y-83134513D01*
X142198295Y-83032728D01*
X142262618Y-82976051D01*
X142333776Y-82940109D01*
X142435261Y-82920233D01*
X142590561Y-82911753D01*
X142815795Y-82910000D01*
X143046782Y-82912032D01*
X143200248Y-82920967D01*
X143298833Y-82941067D01*
X143365177Y-82976593D01*
X143413497Y-83022500D01*
X143523425Y-83188385D01*
X143554862Y-83349570D01*
X143542402Y-83410000D01*
X143490097Y-83500522D01*
X143412879Y-83597500D01*
X143356473Y-83649616D01*
X143287168Y-83682660D01*
X143182353Y-83700895D01*
X143019414Y-83708580D01*
X142815795Y-83710000D01*
X142777340Y-83709688D01*
X142585543Y-83708131D01*
G37*
G36*
X142953355Y-81811216D02*
G01*
X143133136Y-81816886D01*
X143251606Y-81830043D01*
X143328205Y-81853724D01*
X143382370Y-81890962D01*
X143413497Y-81922500D01*
X143523425Y-82088385D01*
X143554862Y-82249570D01*
X143542402Y-82310000D01*
X143490097Y-82400522D01*
X143412879Y-82497500D01*
X143363148Y-82544758D01*
X143303101Y-82576563D01*
X143213317Y-82595948D01*
X143074377Y-82605948D01*
X142866862Y-82609597D01*
X142692825Y-82610000D01*
X142075325Y-82610000D01*
X142075325Y-82485000D01*
X142075325Y-82360000D01*
X142591786Y-82360000D01*
X142857875Y-82355311D01*
X143040749Y-82339891D01*
X143157010Y-82311711D01*
X143205494Y-82285000D01*
X143272954Y-82224862D01*
X143260524Y-82180185D01*
X143205494Y-82135000D01*
X143124244Y-82097242D01*
X142987390Y-82073589D01*
X142778327Y-82062012D01*
X142591786Y-82060000D01*
X142075325Y-82060000D01*
X142075325Y-81935000D01*
X142075325Y-81810000D01*
X142692825Y-81810000D01*
X142953355Y-81811216D01*
G37*
G36*
X142663777Y-80735246D02*
G01*
X142676275Y-80814254D01*
X142676509Y-80850137D01*
X142662035Y-80961146D01*
X142599997Y-81008358D01*
X142538738Y-81019179D01*
X142431095Y-81055793D01*
X142400966Y-81134316D01*
X142427828Y-81229547D01*
X142496986Y-81248294D01*
X142591300Y-81194581D01*
X142693631Y-81072430D01*
X142698759Y-81064426D01*
X142860584Y-80857225D01*
X143025010Y-80746582D01*
X143197400Y-80729093D01*
X143220363Y-80733415D01*
X143401066Y-80817483D01*
X143512554Y-80967462D01*
X143546388Y-81169761D01*
X143538946Y-81246504D01*
X143476469Y-81372845D01*
X143352996Y-81484839D01*
X143206459Y-81552251D01*
X143145689Y-81560000D01*
X143060649Y-81542379D01*
X143029694Y-81469846D01*
X143027199Y-81410000D01*
X143043770Y-81299143D01*
X143103289Y-81260963D01*
X143122036Y-81260000D01*
X143216789Y-81224383D01*
X143249908Y-81143516D01*
X143213659Y-81066093D01*
X143149971Y-81019528D01*
X143092254Y-81032482D01*
X143022368Y-81116199D01*
X142954098Y-81227004D01*
X142793358Y-81429167D01*
X142604747Y-81539433D01*
X142469903Y-81560000D01*
X142352373Y-81518941D01*
X142227519Y-81417046D01*
X142125451Y-81286240D01*
X142076278Y-81158446D01*
X142075325Y-81141635D01*
X142121129Y-80980265D01*
X142241574Y-80839825D01*
X142411210Y-80745862D01*
X142488639Y-80726770D01*
X142610935Y-80712456D01*
X142663777Y-80735246D01*
G37*
G36*
X143307607Y-78051328D02*
G01*
X143444883Y-78157607D01*
X143534370Y-78302284D01*
X143554894Y-78458807D01*
X143542402Y-78510000D01*
X143490097Y-78600522D01*
X143412879Y-78697500D01*
X143356473Y-78749616D01*
X143287168Y-78782660D01*
X143182353Y-78800895D01*
X143019414Y-78808580D01*
X142815795Y-78810000D01*
X142585543Y-78808131D01*
X142431975Y-78799409D01*
X142331599Y-78779166D01*
X142260925Y-78742733D01*
X142198295Y-78687273D01*
X142101378Y-78531181D01*
X142085401Y-78360656D01*
X142140156Y-78200790D01*
X142255435Y-78076673D01*
X142421028Y-78013399D01*
X142473837Y-78010000D01*
X142582352Y-78023038D01*
X142622508Y-78078534D01*
X142626410Y-78134048D01*
X142595139Y-78240658D01*
X142501164Y-78289468D01*
X142401907Y-78347803D01*
X142379462Y-78431431D01*
X142435614Y-78506291D01*
X142488639Y-78528486D01*
X142645602Y-78552614D01*
X142836535Y-78558173D01*
X143020719Y-78546355D01*
X143157431Y-78518352D01*
X143180789Y-78508241D01*
X143266222Y-78436980D01*
X143251945Y-78369104D01*
X143138429Y-78306438D01*
X143127396Y-78302508D01*
X143013157Y-78237769D01*
X142977236Y-78138880D01*
X142977101Y-78130109D01*
X142992104Y-78047171D01*
X143056778Y-78014435D01*
X143143713Y-78010000D01*
X143307607Y-78051328D01*
G37*
G36*
X142663777Y-76435246D02*
G01*
X142676275Y-76514254D01*
X142676509Y-76550137D01*
X142662035Y-76661146D01*
X142599997Y-76708358D01*
X142538738Y-76719179D01*
X142431095Y-76755793D01*
X142400966Y-76834316D01*
X142427828Y-76929547D01*
X142496986Y-76948294D01*
X142591300Y-76894581D01*
X142693631Y-76772430D01*
X142698759Y-76764426D01*
X142860584Y-76557225D01*
X143025010Y-76446582D01*
X143197400Y-76429093D01*
X143220363Y-76433415D01*
X143401066Y-76517483D01*
X143512554Y-76667462D01*
X143546388Y-76869761D01*
X143538946Y-76946504D01*
X143476469Y-77072845D01*
X143352996Y-77184839D01*
X143206459Y-77252251D01*
X143145689Y-77260000D01*
X143060649Y-77242379D01*
X143029694Y-77169846D01*
X143027199Y-77110000D01*
X143043770Y-76999143D01*
X143103289Y-76960963D01*
X143122036Y-76960000D01*
X143216789Y-76924383D01*
X143249908Y-76843516D01*
X143213659Y-76766093D01*
X143149971Y-76719528D01*
X143092254Y-76732482D01*
X143022368Y-76816199D01*
X142954098Y-76927004D01*
X142793358Y-77129167D01*
X142604747Y-77239433D01*
X142469903Y-77260000D01*
X142352373Y-77218941D01*
X142227519Y-77117046D01*
X142125451Y-76986240D01*
X142076278Y-76858446D01*
X142075325Y-76841635D01*
X142121129Y-76680265D01*
X142241574Y-76539825D01*
X142411210Y-76445862D01*
X142488639Y-76426770D01*
X142610935Y-76412456D01*
X142663777Y-76435246D01*
G37*
G36*
X142663777Y-73185246D02*
G01*
X142676275Y-73264254D01*
X142676509Y-73300137D01*
X142662035Y-73411146D01*
X142599997Y-73458358D01*
X142538738Y-73469179D01*
X142431095Y-73505793D01*
X142400966Y-73584316D01*
X142427828Y-73679547D01*
X142496986Y-73698294D01*
X142591300Y-73644581D01*
X142693631Y-73522430D01*
X142698759Y-73514426D01*
X142860584Y-73307225D01*
X143025010Y-73196582D01*
X143197400Y-73179093D01*
X143220363Y-73183415D01*
X143401066Y-73267483D01*
X143512554Y-73417462D01*
X143546388Y-73619761D01*
X143538946Y-73696504D01*
X143476469Y-73822845D01*
X143352996Y-73934839D01*
X143206459Y-74002251D01*
X143145689Y-74010000D01*
X143060649Y-73992379D01*
X143029694Y-73919846D01*
X143027199Y-73860000D01*
X143043770Y-73749143D01*
X143103289Y-73710963D01*
X143122036Y-73710000D01*
X143216789Y-73674383D01*
X143249908Y-73593516D01*
X143213659Y-73516093D01*
X143149971Y-73469528D01*
X143092254Y-73482482D01*
X143022368Y-73566199D01*
X142954098Y-73677004D01*
X142793358Y-73879167D01*
X142604747Y-73989433D01*
X142469903Y-74010000D01*
X142352373Y-73968941D01*
X142227519Y-73867046D01*
X142125451Y-73736240D01*
X142076278Y-73608446D01*
X142075325Y-73591635D01*
X142121129Y-73430265D01*
X142241574Y-73289825D01*
X142411210Y-73195862D01*
X142488639Y-73176770D01*
X142610935Y-73162456D01*
X142663777Y-73185246D01*
G37*
G36*
X142585543Y-72858131D02*
G01*
X142431975Y-72849409D01*
X142331599Y-72829166D01*
X142260925Y-72792733D01*
X142198295Y-72737273D01*
X142095853Y-72576174D01*
X142080399Y-72488715D01*
X142378764Y-72488715D01*
X142427361Y-72565365D01*
X142455162Y-72579651D01*
X142599826Y-72611010D01*
X142777340Y-72616348D01*
X142960784Y-72599580D01*
X143123235Y-72564623D01*
X143237771Y-72515392D01*
X143277692Y-72460000D01*
X143238725Y-72401989D01*
X143180789Y-72361760D01*
X143063733Y-72329617D01*
X142888285Y-72313342D01*
X142695166Y-72314124D01*
X142525096Y-72333154D01*
X142488639Y-72341515D01*
X142401060Y-72400794D01*
X142378764Y-72488715D01*
X142080399Y-72488715D01*
X142075325Y-72460000D01*
X142122158Y-72284513D01*
X142198295Y-72182728D01*
X142262618Y-72126051D01*
X142333776Y-72090109D01*
X142435261Y-72070233D01*
X142590561Y-72061753D01*
X142815795Y-72060000D01*
X143046782Y-72062032D01*
X143200248Y-72070967D01*
X143298833Y-72091067D01*
X143365177Y-72126593D01*
X143413497Y-72172500D01*
X143523425Y-72338385D01*
X143554862Y-72499570D01*
X143542402Y-72560000D01*
X143490097Y-72650522D01*
X143412879Y-72747500D01*
X143356473Y-72799616D01*
X143287168Y-72832660D01*
X143182353Y-72850895D01*
X143019414Y-72858580D01*
X142815795Y-72860000D01*
X142777340Y-72859688D01*
X142585543Y-72858131D01*
G37*
G36*
X142835931Y-85805824D02*
G01*
X142610135Y-85764848D01*
X142404377Y-85726313D01*
X142242355Y-85694429D01*
X142188047Y-85682938D01*
X142102608Y-85636230D01*
X142075578Y-85529656D01*
X142075325Y-85511999D01*
X142078399Y-85489538D01*
X142805698Y-85489538D01*
X142851854Y-85513668D01*
X142998655Y-85552565D01*
X143097486Y-85541990D01*
X143127396Y-85495041D01*
X143091142Y-85452829D01*
X142974759Y-85448587D01*
X142939527Y-85452222D01*
X142827557Y-85469836D01*
X142805698Y-85489538D01*
X142078399Y-85489538D01*
X142091103Y-85396713D01*
X142126161Y-85334546D01*
X142192026Y-85315094D01*
X142337052Y-85283671D01*
X142541481Y-85244228D01*
X142785555Y-85200716D01*
X142852591Y-85189304D01*
X143528185Y-85075418D01*
X143528185Y-85217709D01*
X143504766Y-85331105D01*
X143453037Y-85360000D01*
X143392598Y-85403466D01*
X143377890Y-85485000D01*
X143404020Y-85585535D01*
X143453037Y-85610000D01*
X143512698Y-85654722D01*
X143528185Y-85760000D01*
X143509768Y-85869096D01*
X143465562Y-85909923D01*
X143396582Y-85901290D01*
X143252852Y-85878255D01*
X143058069Y-85845030D01*
X142998655Y-85834544D01*
X142835931Y-85805824D01*
G37*
G36*
X142333034Y-79673454D02*
G01*
X142372328Y-79730643D01*
X142375917Y-79785000D01*
X142375917Y-79910000D01*
X142952051Y-79910000D01*
X143528185Y-79910000D01*
X143528185Y-80060000D01*
X143528185Y-80210000D01*
X142952051Y-80210000D01*
X142375917Y-80210000D01*
X142375917Y-80335000D01*
X142359741Y-80424335D01*
X142290979Y-80457015D01*
X142225621Y-80460000D01*
X142075325Y-80460000D01*
X142075325Y-80060000D01*
X142075325Y-79660000D01*
X142225621Y-79660000D01*
X142333034Y-79673454D01*
G37*
G36*
X143528185Y-79260000D02*
G01*
X143528185Y-79412746D01*
X142814280Y-79398873D01*
X142100375Y-79385000D01*
X142100375Y-79260000D01*
X142100375Y-79135000D01*
X142814280Y-79121128D01*
X143528185Y-79107255D01*
X143528185Y-79260000D01*
G37*
G36*
X142321149Y-75417694D02*
G01*
X142364632Y-75459896D01*
X142375663Y-75565290D01*
X142375917Y-75610000D01*
X142382753Y-75738857D01*
X142414998Y-75796129D01*
X142490256Y-75809929D01*
X142501164Y-75810000D01*
X142581858Y-75799084D01*
X142617724Y-75747594D01*
X142626366Y-75627418D01*
X142626410Y-75610000D01*
X142632345Y-75481759D01*
X142664508Y-75424750D01*
X142744433Y-75410316D01*
X142776706Y-75410000D01*
X142873077Y-75417898D01*
X142915918Y-75460697D01*
X142926765Y-75567055D01*
X142927002Y-75610000D01*
X142932937Y-75738242D01*
X142965099Y-75795251D01*
X143045025Y-75809685D01*
X143077298Y-75810000D01*
X143173669Y-75802103D01*
X143216510Y-75759304D01*
X143227357Y-75652946D01*
X143227594Y-75610000D01*
X143233529Y-75481759D01*
X143265691Y-75424750D01*
X143345616Y-75410316D01*
X143377890Y-75410000D01*
X143528185Y-75410000D01*
X143528185Y-75761373D01*
X143528185Y-76112746D01*
X142814280Y-76098873D01*
X142100375Y-76085000D01*
X142085561Y-75747500D01*
X142070747Y-75410000D01*
X142223332Y-75410000D01*
X142321149Y-75417694D01*
G37*
G36*
X143528185Y-74378643D02*
G01*
X143510423Y-74454238D01*
X143443935Y-74520350D01*
X143308919Y-74593939D01*
X143240118Y-74625352D01*
X142952051Y-74753419D01*
X143240118Y-74756710D01*
X143402116Y-74760815D01*
X143488043Y-74777011D01*
X143522021Y-74818249D01*
X143528172Y-74897480D01*
X143528185Y-74911373D01*
X143528185Y-75062746D01*
X142814280Y-75048873D01*
X142533646Y-75042670D01*
X142337594Y-75035124D01*
X142210517Y-75023706D01*
X142136807Y-75005885D01*
X142100856Y-74979130D01*
X142087057Y-74940911D01*
X142085442Y-74930701D01*
X142093810Y-74868194D01*
X142149863Y-74808660D01*
X142270603Y-74738602D01*
X142411083Y-74672284D01*
X142751657Y-74518166D01*
X142413491Y-74514083D01*
X142234292Y-74509847D01*
X142133070Y-74496931D01*
X142087608Y-74466855D01*
X142075686Y-74411137D01*
X142075325Y-74385000D01*
X142075325Y-74260000D01*
X142801755Y-74260000D01*
X143528185Y-74260000D01*
X143528185Y-74378643D01*
G37*
G36*
X142100375Y-71735000D02*
G01*
X142101503Y-71450330D01*
X142106919Y-71347500D01*
X142384957Y-71347500D01*
X142391677Y-71431532D01*
X142463168Y-71458992D01*
X142497679Y-71460000D01*
X142594554Y-71440838D01*
X142625460Y-71363301D01*
X142626410Y-71331523D01*
X142610055Y-71237875D01*
X142544033Y-71215874D01*
X142513688Y-71219023D01*
X142412406Y-71275961D01*
X142384957Y-71347500D01*
X142106919Y-71347500D01*
X142111149Y-71267188D01*
X142146045Y-71144441D01*
X142217822Y-71043408D01*
X142226750Y-71033780D01*
X142325492Y-70947893D01*
X142428281Y-70920787D01*
X142551262Y-70931362D01*
X142674017Y-70948249D01*
X142773724Y-70956233D01*
X142882249Y-70955205D01*
X143031458Y-70945057D01*
X143215069Y-70929089D01*
X143528185Y-70901118D01*
X143528185Y-71055559D01*
X143522669Y-71148331D01*
X143488534Y-71193701D01*
X143399399Y-71208612D01*
X143287712Y-71210000D01*
X143079105Y-71232883D01*
X142959069Y-71301381D01*
X142927002Y-71395001D01*
X142963209Y-71434786D01*
X143079154Y-71455521D01*
X143227594Y-71460000D01*
X143528185Y-71460000D01*
X143528185Y-71611373D01*
X143528185Y-71762746D01*
X142814280Y-71748873D01*
X142497679Y-71742721D01*
X142100375Y-71735000D01*
G37*
G36*
X141659475Y-86708645D02*
G01*
X141671508Y-86799532D01*
X141674558Y-86970038D01*
X141674576Y-86992151D01*
X141674616Y-87335000D01*
X140436907Y-87318490D01*
X139199199Y-87301980D01*
X139798110Y-87734250D01*
X140042600Y-87909565D01*
X140288681Y-88084036D01*
X140510590Y-88239520D01*
X140682566Y-88357876D01*
X140709096Y-88375760D01*
X140859173Y-88480628D01*
X140970065Y-88566195D01*
X141021009Y-88616267D01*
X141022212Y-88619974D01*
X140984511Y-88662845D01*
X140883266Y-88746286D01*
X140737823Y-88854683D01*
X140685089Y-88892102D01*
X140416424Y-89081085D01*
X140146673Y-89271845D01*
X139889232Y-89454806D01*
X139657495Y-89620391D01*
X139464858Y-89759023D01*
X139324714Y-89861125D01*
X139250460Y-89917120D01*
X139244753Y-89921892D01*
X139276076Y-89934305D01*
X139391307Y-89943236D01*
X139574227Y-89948901D01*
X139808616Y-89951517D01*
X140078253Y-89951301D01*
X140366919Y-89948467D01*
X140658394Y-89943234D01*
X140936458Y-89935817D01*
X141184891Y-89926433D01*
X141387473Y-89915298D01*
X141527983Y-89902628D01*
X141586864Y-89890645D01*
X141633072Y-89878444D01*
X141659492Y-89908815D01*
X141671521Y-90000309D01*
X141674555Y-90171475D01*
X141674571Y-90192151D01*
X141674606Y-90535000D01*
X140008792Y-90521884D01*
X139591742Y-90518323D01*
X139191050Y-90514385D01*
X138821847Y-90510255D01*
X138499261Y-90506123D01*
X138238422Y-90502174D01*
X138054458Y-90498598D01*
X137992288Y-90496884D01*
X137641598Y-90485000D01*
X138267830Y-90023199D01*
X138554302Y-89812217D01*
X138882807Y-89570705D01*
X139214518Y-89327186D01*
X139510607Y-89110184D01*
X139534700Y-89092549D01*
X140175337Y-88623700D01*
X139158961Y-87880184D01*
X138865255Y-87665255D01*
X138584968Y-87460010D01*
X138332523Y-87275023D01*
X138122346Y-87120866D01*
X137968862Y-87008113D01*
X137904707Y-86960834D01*
X137666830Y-86785000D01*
X139583011Y-86759617D01*
X140014402Y-86752851D01*
X140416414Y-86744530D01*
X140777532Y-86735043D01*
X141086238Y-86724781D01*
X141331018Y-86714133D01*
X141500356Y-86703489D01*
X141582734Y-86693240D01*
X141586864Y-86691768D01*
X141633060Y-86678886D01*
X141659475Y-86708645D01*
G37*
G36*
X138227545Y-84259949D02*
G01*
X138212308Y-85360000D01*
X138768157Y-85360000D01*
X139324006Y-85360000D01*
X139309429Y-84384947D01*
X139294852Y-83409894D01*
X139603930Y-83409947D01*
X139913008Y-83410000D01*
X139865656Y-83581158D01*
X139850079Y-83690066D01*
X139838498Y-83876903D01*
X139831681Y-84119653D01*
X139830394Y-84396298D01*
X139832120Y-84543658D01*
X139845937Y-85335000D01*
X140488213Y-85349021D01*
X141130488Y-85363041D01*
X141114445Y-84261471D01*
X141098402Y-83159902D01*
X141386469Y-83159951D01*
X141674536Y-83160000D01*
X141674536Y-84563973D01*
X141674536Y-85967946D01*
X141511716Y-85926473D01*
X141419071Y-85915739D01*
X141241573Y-85906628D01*
X140993928Y-85899154D01*
X140690842Y-85893329D01*
X140347023Y-85889164D01*
X139977177Y-85886671D01*
X139596012Y-85885864D01*
X139218233Y-85886754D01*
X138858549Y-85889352D01*
X138531664Y-85893672D01*
X138252288Y-85899726D01*
X138035125Y-85907525D01*
X137894883Y-85917081D01*
X137854517Y-85923453D01*
X137716746Y-85961906D01*
X137716746Y-84560953D01*
X137716746Y-83160000D01*
X137979763Y-83159949D01*
X138242781Y-83159897D01*
X138227545Y-84259949D01*
G37*
G36*
X141674571Y-78927850D02*
G01*
X141672047Y-79107540D01*
X141660928Y-79205965D01*
X141635821Y-79241809D01*
X141591336Y-79233757D01*
X141586864Y-79231814D01*
X141512800Y-79219561D01*
X141357048Y-79207153D01*
X141138117Y-79195125D01*
X140874514Y-79184011D01*
X140584747Y-79174345D01*
X140287323Y-79166660D01*
X140000750Y-79161491D01*
X139743537Y-79159372D01*
X139534189Y-79160837D01*
X139391216Y-79166420D01*
X139373502Y-79167949D01*
X139321174Y-79175745D01*
X139295313Y-79191465D01*
X139303933Y-79222326D01*
X139355049Y-79275543D01*
X139456675Y-79358333D01*
X139616826Y-79477913D01*
X139843516Y-79641499D01*
X140112456Y-79833316D01*
X140375647Y-80022051D01*
X140609020Y-80192072D01*
X140800955Y-80334692D01*
X140939831Y-80441224D01*
X141014027Y-80502981D01*
X141023254Y-80514172D01*
X140985008Y-80557885D01*
X140887204Y-80634012D01*
X140810335Y-80686789D01*
X140689100Y-80768832D01*
X140517567Y-80887914D01*
X140312244Y-81032249D01*
X140089640Y-81190050D01*
X139866263Y-81349530D01*
X139658622Y-81498903D01*
X139483225Y-81626381D01*
X139356581Y-81720177D01*
X139295198Y-81768505D01*
X139294852Y-81768829D01*
X139326041Y-81783855D01*
X139452121Y-81794817D01*
X139667861Y-81801573D01*
X139968034Y-81803981D01*
X140347409Y-81801898D01*
X140459692Y-81800586D01*
X141674630Y-81785000D01*
X141674583Y-82127850D01*
X141672118Y-82307357D01*
X141661186Y-82405433D01*
X141636388Y-82440597D01*
X141592327Y-82431372D01*
X141586864Y-82428821D01*
X141518462Y-82418786D01*
X141361376Y-82408262D01*
X141127115Y-82397636D01*
X140827188Y-82387299D01*
X140473103Y-82377639D01*
X140076371Y-82369047D01*
X139648500Y-82361911D01*
X139580963Y-82360972D01*
X137662735Y-82335000D01*
X138278399Y-81889264D01*
X138948766Y-81401775D01*
X139552496Y-80958132D01*
X139909759Y-80692945D01*
X140173976Y-80495993D01*
X139634217Y-80102819D01*
X139401474Y-79932772D01*
X139117254Y-79724331D01*
X138810492Y-79498761D01*
X138510124Y-79277325D01*
X138368028Y-79172322D01*
X137641598Y-78635000D01*
X137992288Y-78623117D01*
X138128322Y-78619821D01*
X138349423Y-78616051D01*
X138640460Y-78611995D01*
X138986305Y-78607840D01*
X139371828Y-78603775D01*
X139781901Y-78599987D01*
X140008792Y-78598117D01*
X141674606Y-78585000D01*
X141674571Y-78927850D01*
G37*
G36*
X137709526Y-77835000D02*
G01*
X137721542Y-77210000D01*
X138154106Y-77210000D01*
X138937398Y-77210000D01*
X139720690Y-77210000D01*
X139720690Y-76694076D01*
X139711544Y-76393598D01*
X139686130Y-76129243D01*
X139647483Y-75932191D01*
X139646053Y-75927313D01*
X139526499Y-75657101D01*
X139358496Y-75460003D01*
X139155684Y-75341049D01*
X138931702Y-75305269D01*
X138700191Y-75357691D01*
X138481097Y-75497779D01*
X138371325Y-75622060D01*
X138290255Y-75785573D01*
X138233578Y-76003992D01*
X138196987Y-76292991D01*
X138178790Y-76597500D01*
X138154106Y-77210000D01*
X137721542Y-77210000D01*
X137728271Y-76860000D01*
X137739731Y-76445290D01*
X137758636Y-76114907D01*
X137788429Y-75853259D01*
X137832549Y-75644755D01*
X137894439Y-75473802D01*
X137977539Y-75324807D01*
X138085290Y-75182178D01*
X138103216Y-75161041D01*
X138326221Y-74955636D01*
X138578225Y-74836408D01*
X138881921Y-74793038D01*
X138913780Y-74792492D01*
X139220580Y-74818646D01*
X139475422Y-74910934D01*
X139710828Y-75081724D01*
X139736367Y-75105301D01*
X139858130Y-75231772D01*
X139952194Y-75365242D01*
X140039854Y-75539556D01*
X140101145Y-75685000D01*
X140117507Y-75769364D01*
X140134775Y-75932743D01*
X140151221Y-76154188D01*
X140165118Y-76412750D01*
X140169132Y-76510000D01*
X140196627Y-77235000D01*
X140772761Y-77235000D01*
X141020528Y-77231415D01*
X141246795Y-77221703D01*
X141423609Y-77207434D01*
X141511716Y-77193528D01*
X141674536Y-77152055D01*
X141674536Y-77493528D01*
X141674536Y-77835000D01*
X139692031Y-77835000D01*
X138154106Y-77835000D01*
X137709526Y-77835000D01*
G37*
G36*
X141674536Y-71335615D02*
G01*
X141674536Y-71636230D01*
X140772761Y-71617540D01*
X139870986Y-71598850D01*
X139870986Y-72635000D01*
X139870986Y-73671151D01*
X140772761Y-73652461D01*
X141674536Y-73633771D01*
X141674542Y-73934386D01*
X141674548Y-74235000D01*
X139695654Y-74235000D01*
X137716759Y-74235000D01*
X137716746Y-73935000D01*
X137716733Y-73635000D01*
X138518317Y-73652739D01*
X139319901Y-73670478D01*
X139319901Y-72635000D01*
X139319901Y-71599523D01*
X138518317Y-71617262D01*
X137716733Y-71635000D01*
X137716739Y-71335000D01*
X137716746Y-71035000D01*
X139695641Y-71035000D01*
X141674536Y-71035000D01*
X141674536Y-71335615D01*
G37*
G36*
X141674543Y-69953562D02*
G01*
X141674549Y-70285000D01*
X139695655Y-70285000D01*
X137716761Y-70285000D01*
X137716722Y-69985000D01*
X137716683Y-69685000D01*
X139472819Y-69700985D01*
X139906483Y-69703522D01*
X140311482Y-69703188D01*
X140675197Y-69700184D01*
X140985009Y-69694709D01*
X141228300Y-69686965D01*
X141392452Y-69677151D01*
X141451745Y-69669546D01*
X141674536Y-69622123D01*
X141674543Y-69953562D01*
G37*
G36*
X140601494Y-66020760D02*
G01*
X140895750Y-66091647D01*
X141149344Y-66245957D01*
X141357937Y-66473913D01*
X141517185Y-66765739D01*
X141622749Y-67111659D01*
X141670287Y-67501897D01*
X141655458Y-67926677D01*
X141599460Y-68268180D01*
X141559472Y-68429570D01*
X141505496Y-68620684D01*
X141446497Y-68812790D01*
X141391441Y-68977155D01*
X141349292Y-69085048D01*
X141338039Y-69105979D01*
X141288907Y-69097177D01*
X141172401Y-69054375D01*
X141011485Y-68986839D01*
X140829119Y-68903833D01*
X140785495Y-68883017D01*
X140800858Y-68839290D01*
X140852564Y-68728269D01*
X140930546Y-68571289D01*
X140957273Y-68518979D01*
X141056909Y-68310354D01*
X141116423Y-68134982D01*
X141148430Y-67945566D01*
X141162929Y-67747937D01*
X141155838Y-67345587D01*
X141088308Y-67022817D01*
X140960221Y-66779358D01*
X140771463Y-66614943D01*
X140645577Y-66559362D01*
X140509931Y-66528879D01*
X140389891Y-66548047D01*
X140285396Y-66593525D01*
X140159991Y-66670747D01*
X140061682Y-66774121D01*
X139983152Y-66919623D01*
X139917085Y-67123230D01*
X139856164Y-67400916D01*
X139818486Y-67613018D01*
X139733840Y-68044154D01*
X139641127Y-68378336D01*
X139540672Y-68614559D01*
X139457436Y-68729879D01*
X139241562Y-68878983D01*
X138979530Y-68958890D01*
X138697169Y-68969957D01*
X138420310Y-68912546D01*
X138174780Y-68787015D01*
X138083817Y-68710772D01*
X137893471Y-68471685D01*
X137762091Y-68179810D01*
X137688962Y-67829021D01*
X137673367Y-67413193D01*
X137714591Y-66926201D01*
X137810141Y-66370518D01*
X137842592Y-66233948D01*
X137871895Y-66144449D01*
X137880222Y-66130180D01*
X137932064Y-66137423D01*
X138042315Y-66174271D01*
X138178670Y-66227861D01*
X138308826Y-66285328D01*
X138400477Y-66333810D01*
X138412388Y-66342087D01*
X138401490Y-66388892D01*
X138348955Y-66482812D01*
X138342952Y-66492057D01*
X138222715Y-66740934D01*
X138150092Y-67032226D01*
X138124048Y-67342721D01*
X138143546Y-67649207D01*
X138207550Y-67928472D01*
X138315026Y-68157305D01*
X138422794Y-68281248D01*
X138615666Y-68393314D01*
X138803510Y-68411644D01*
X138975166Y-68342316D01*
X139119478Y-68191406D01*
X139225286Y-67964992D01*
X139260311Y-67825122D01*
X139297181Y-67630979D01*
X139343155Y-67387352D01*
X139389022Y-67143075D01*
X139394339Y-67114658D01*
X139461234Y-66807142D01*
X139536462Y-66576791D01*
X139630294Y-66400789D01*
X139753002Y-66256319D01*
X139800331Y-66212771D01*
X139986141Y-66089962D01*
X140207833Y-66025410D01*
X140488193Y-66013654D01*
X140601494Y-66020760D01*
G37*
G36*
X135972078Y-83500401D02*
G01*
X136251535Y-83508837D01*
X136450406Y-83520826D01*
X136588301Y-83539216D01*
X136684828Y-83566857D01*
X136759598Y-83606601D01*
X136774816Y-83617067D01*
X136928190Y-83783307D01*
X137025298Y-84008460D01*
X137060550Y-84265168D01*
X137028354Y-84526076D01*
X136985638Y-84648594D01*
X136910154Y-84784136D01*
X136809939Y-84882161D01*
X136669182Y-84948187D01*
X136472076Y-84987732D01*
X136202810Y-85006314D01*
X135950769Y-85009814D01*
X135312012Y-85010000D01*
X135312012Y-84872500D01*
X135312012Y-84735000D01*
X135967720Y-84735000D01*
X136235948Y-84734109D01*
X136422434Y-84729504D01*
X136545630Y-84718285D01*
X136623989Y-84697556D01*
X136675963Y-84664417D01*
X136719200Y-84616961D01*
X136798231Y-84451884D01*
X136820470Y-84249321D01*
X136787396Y-84049230D01*
X136700489Y-83891569D01*
X136692001Y-83882728D01*
X136635646Y-83831699D01*
X136574394Y-83797199D01*
X136488503Y-83776005D01*
X136358233Y-83764891D01*
X136163842Y-83760635D01*
X135940522Y-83760000D01*
X135312012Y-83760000D01*
X135311924Y-83622500D01*
X135311836Y-83485000D01*
X135972078Y-83500401D01*
G37*
G36*
X136472551Y-81610900D02*
G01*
X136718065Y-81613395D01*
X136909247Y-81617182D01*
X137030064Y-81621956D01*
X137065463Y-81626624D01*
X137032323Y-81666111D01*
X136940586Y-81764881D01*
X136801781Y-81910790D01*
X136627435Y-82091691D01*
X136484092Y-82239124D01*
X135902721Y-82835000D01*
X136459043Y-82849138D01*
X137015365Y-82863276D01*
X137015436Y-82999138D01*
X137015506Y-83135000D01*
X136351629Y-83121518D01*
X136084718Y-83115522D01*
X135836885Y-83108919D01*
X135634360Y-83102473D01*
X135503377Y-83096952D01*
X135495854Y-83096518D01*
X135303957Y-83085000D01*
X135891361Y-82485000D01*
X136119986Y-82251855D01*
X136278789Y-82082818D01*
X136365558Y-81968196D01*
X136378079Y-81898293D01*
X136314137Y-81863413D01*
X136171521Y-81853860D01*
X135948015Y-81859940D01*
X135750492Y-81867987D01*
X135311961Y-81885000D01*
X135311986Y-81747500D01*
X135312012Y-81610000D01*
X136188738Y-81610000D01*
X136472551Y-81610900D01*
G37*
G36*
X135374635Y-78947569D02*
G01*
X135441846Y-78988571D01*
X135578897Y-79063640D01*
X135765985Y-79162174D01*
X135983305Y-79273571D01*
X135988343Y-79276120D01*
X136333830Y-79451796D01*
X136598237Y-79588887D01*
X136790485Y-79692760D01*
X136919495Y-79768782D01*
X136994188Y-79822319D01*
X137023485Y-79858736D01*
X137016307Y-79883401D01*
X137008057Y-79889508D01*
X136943294Y-79924855D01*
X136804828Y-79997487D01*
X136608250Y-80099326D01*
X136369149Y-80222290D01*
X136126199Y-80346531D01*
X135312012Y-80761813D01*
X135312012Y-80557956D01*
X135321737Y-80438864D01*
X135346165Y-80381990D01*
X135357930Y-80382422D01*
X135416663Y-80372246D01*
X135542624Y-80326450D01*
X135713916Y-80255104D01*
X135908638Y-80168277D01*
X136104894Y-80076039D01*
X136280783Y-79988460D01*
X136414408Y-79915610D01*
X136483870Y-79867559D01*
X136487461Y-79863018D01*
X136456722Y-79825724D01*
X136355087Y-79758290D01*
X136203196Y-79671250D01*
X136021690Y-79575134D01*
X135831208Y-79480476D01*
X135652390Y-79397807D01*
X135505878Y-79337659D01*
X135412309Y-79310565D01*
X135403685Y-79310000D01*
X135343745Y-79290381D01*
X135316940Y-79215163D01*
X135312012Y-79103878D01*
X135318904Y-78976255D01*
X135343367Y-78933751D01*
X135374635Y-78947569D01*
G37*
G36*
X135312012Y-77210000D02*
G01*
X135312012Y-76960000D01*
X135498133Y-76960000D01*
X135830910Y-76960000D01*
X136163688Y-76960000D01*
X136163688Y-76662789D01*
X136154707Y-76471713D01*
X136121038Y-76342167D01*
X136052593Y-76236747D01*
X136047028Y-76230218D01*
X135946051Y-76138053D01*
X135846999Y-76118903D01*
X135797981Y-76128020D01*
X135687794Y-76177823D01*
X135612166Y-76273983D01*
X135561872Y-76434719D01*
X135529792Y-76657696D01*
X135498133Y-76960000D01*
X135312012Y-76960000D01*
X135312012Y-76811012D01*
X135335570Y-76452857D01*
X135406326Y-76182620D01*
X135524407Y-75999940D01*
X135616325Y-75933080D01*
X135745664Y-75880632D01*
X135848084Y-75860187D01*
X135971394Y-75891683D01*
X136112799Y-75968996D01*
X136234721Y-76066994D01*
X136299587Y-76160547D01*
X136300126Y-76162512D01*
X136330111Y-76241974D01*
X136347364Y-76260000D01*
X136431559Y-76230633D01*
X136563569Y-76154700D01*
X136714911Y-76050451D01*
X136857101Y-75936138D01*
X136868062Y-75926354D01*
X136982706Y-75828546D01*
X137042961Y-75795834D01*
X137064314Y-75821643D01*
X137065463Y-75842576D01*
X137038075Y-75941974D01*
X136969884Y-76073300D01*
X136945317Y-76110894D01*
X136823618Y-76248340D01*
X136666939Y-76378313D01*
X136619676Y-76409304D01*
X136493964Y-76493712D01*
X136433715Y-76572000D01*
X136415210Y-76683633D01*
X136414181Y-76751245D01*
X136414181Y-76968883D01*
X136714864Y-76951942D01*
X136881177Y-76944515D01*
X136971012Y-76952463D01*
X137007909Y-76985228D01*
X137015412Y-77052252D01*
X137015456Y-77072500D01*
X137015365Y-77210000D01*
X136163688Y-77210000D01*
X135498133Y-77210000D01*
X135312012Y-77210000D01*
G37*
G36*
X136683761Y-74305545D02*
G01*
X136843520Y-74426706D01*
X136966610Y-74600276D01*
X137006546Y-74700340D01*
X137041105Y-74823700D01*
X137056128Y-74922291D01*
X137050471Y-75028044D01*
X137022990Y-75172891D01*
X136983544Y-75342498D01*
X136910469Y-75649996D01*
X136757241Y-75573707D01*
X136669581Y-75515672D01*
X136650332Y-75470625D01*
X136656259Y-75465191D01*
X136726826Y-75374297D01*
X136781993Y-75215454D01*
X136812104Y-75020548D01*
X136814970Y-74941174D01*
X136783554Y-74751593D01*
X136700097Y-74603368D01*
X136580791Y-74520048D01*
X136518561Y-74510000D01*
X136446697Y-74519324D01*
X136389799Y-74556984D01*
X136341185Y-74637514D01*
X136294172Y-74775448D01*
X136242076Y-74985319D01*
X136190355Y-75223772D01*
X136110382Y-75402252D01*
X135970706Y-75521009D01*
X135809704Y-75560000D01*
X135597405Y-75523586D01*
X135445879Y-75412645D01*
X135353531Y-75224636D01*
X135318765Y-74957015D01*
X135323005Y-74784128D01*
X135341183Y-74559529D01*
X135365669Y-74420645D01*
X135403898Y-74353200D01*
X135463308Y-74342914D01*
X135538853Y-74369734D01*
X135621357Y-74425259D01*
X135613869Y-74483313D01*
X135610480Y-74487554D01*
X135562524Y-74599156D01*
X135535627Y-74767367D01*
X135532045Y-74950572D01*
X135554036Y-75107158D01*
X135573996Y-75160000D01*
X135667670Y-75264113D01*
X135783693Y-75301074D01*
X135888585Y-75262156D01*
X135904012Y-75246044D01*
X135942614Y-75164460D01*
X135989065Y-75016366D01*
X136033377Y-74833652D01*
X136033801Y-74831639D01*
X136118100Y-74556193D01*
X136237426Y-74372195D01*
X136394463Y-74276449D01*
X136513329Y-74260000D01*
X136683761Y-74305545D01*
G37*
G36*
X136101433Y-69468597D02*
G01*
X135995449Y-69455769D01*
X135750934Y-69366987D01*
X135557041Y-69208267D01*
X135417335Y-68997955D01*
X135335380Y-68754400D01*
X135327630Y-68657350D01*
X135541491Y-68657350D01*
X135621071Y-68877602D01*
X135745997Y-69039798D01*
X135867350Y-69146213D01*
X135981334Y-69196201D01*
X136137642Y-69209847D01*
X136167121Y-69210000D01*
X136430779Y-69173402D01*
X136625948Y-69063849D01*
X136752274Y-68881708D01*
X136809403Y-68627347D01*
X136812965Y-68541618D01*
X136805678Y-68388337D01*
X136767970Y-68277591D01*
X136680738Y-68165969D01*
X136620470Y-68104118D01*
X136490730Y-67986898D01*
X136380767Y-67928905D01*
X136248566Y-67910647D01*
X136202040Y-67910000D01*
X135953153Y-67951959D01*
X135755349Y-68065770D01*
X135615935Y-68233337D01*
X135542213Y-68436563D01*
X135541491Y-68657350D01*
X135327630Y-68657350D01*
X135314740Y-68495949D01*
X135358980Y-68240948D01*
X135471665Y-68007745D01*
X135656360Y-67814687D01*
X135674093Y-67801711D01*
X135793955Y-67732899D01*
X135930660Y-67697047D01*
X136121841Y-67685255D01*
X136167588Y-67685000D01*
X136363636Y-67691569D01*
X136498745Y-67718152D01*
X136611698Y-67775061D01*
X136674049Y-67819678D01*
X136863628Y-68021175D01*
X136990857Y-68274870D01*
X137047185Y-68552200D01*
X137024062Y-68824603D01*
X136998913Y-68904942D01*
X136855936Y-69150841D01*
X136646468Y-69333464D01*
X136388852Y-69442739D01*
X136167121Y-69462687D01*
X136101433Y-69468597D01*
G37*
G36*
X135508739Y-89367051D02*
G01*
X135546108Y-89404445D01*
X135560358Y-89496547D01*
X135562505Y-89637569D01*
X135562505Y-89915138D01*
X136289013Y-89900069D01*
X137015521Y-89885000D01*
X137015521Y-90035000D01*
X137015521Y-90185000D01*
X136289013Y-90169932D01*
X135562505Y-90154863D01*
X135562505Y-90432432D01*
X135559324Y-90590847D01*
X135542450Y-90673662D01*
X135500892Y-90705242D01*
X135437258Y-90710000D01*
X135312012Y-90710000D01*
X135312012Y-90035000D01*
X135312012Y-89360000D01*
X135437258Y-89360000D01*
X135508739Y-89367051D01*
G37*
G36*
X137015481Y-87797500D02*
G01*
X137015598Y-87935000D01*
X136639742Y-87918550D01*
X136263886Y-87902100D01*
X136263886Y-88360000D01*
X136263886Y-88817901D01*
X136639742Y-88801451D01*
X137015598Y-88785000D01*
X137015481Y-88935000D01*
X137015365Y-89085000D01*
X136163688Y-89085000D01*
X135312012Y-89085000D01*
X135311899Y-88935000D01*
X135311786Y-88785000D01*
X135662589Y-88801603D01*
X136013392Y-88818206D01*
X136013392Y-88358461D01*
X136013392Y-87898716D01*
X135662702Y-87918493D01*
X135312012Y-87938269D01*
X135312012Y-87799135D01*
X135312012Y-87660000D01*
X136163688Y-87660000D01*
X137015365Y-87660000D01*
X137015481Y-87797500D01*
G37*
G36*
X135495281Y-86063299D02*
G01*
X135531874Y-86085682D01*
X135551978Y-86145882D01*
X135560531Y-86262628D01*
X135562473Y-86454654D01*
X135562505Y-86535000D01*
X135562505Y-87010000D01*
X135787949Y-87010000D01*
X136013392Y-87010000D01*
X136013392Y-86585000D01*
X136014767Y-86379080D01*
X136022496Y-86253389D01*
X136041986Y-86188160D01*
X136078646Y-86163625D01*
X136129658Y-86160000D01*
X136185708Y-86164185D01*
X136218716Y-86189902D01*
X136233044Y-86256896D01*
X136233057Y-86384912D01*
X136223573Y-86585000D01*
X136201222Y-87010000D01*
X136514072Y-87010000D01*
X136826922Y-87010000D01*
X136806106Y-86535000D01*
X136797401Y-86315022D01*
X136797142Y-86176238D01*
X136809037Y-86099954D01*
X136836795Y-86067476D01*
X136884124Y-86060109D01*
X136900327Y-86060000D01*
X136948797Y-86063421D01*
X136981288Y-86084793D01*
X137000996Y-86140777D01*
X137011114Y-86248036D01*
X137014839Y-86423233D01*
X137015365Y-86660000D01*
X137015365Y-87260000D01*
X136163688Y-87260000D01*
X135312012Y-87260000D01*
X135312012Y-86660000D01*
X135312012Y-86060000D01*
X135437258Y-86060000D01*
X135495281Y-86063299D01*
G37*
G36*
X137015429Y-81085000D02*
G01*
X137015365Y-81235000D01*
X136163688Y-81235000D01*
X135312012Y-81235000D01*
X135312012Y-81099780D01*
X135312012Y-80964560D01*
X136163753Y-80949780D01*
X137015493Y-80935000D01*
X137015429Y-81085000D01*
G37*
G36*
X135496548Y-77563584D02*
G01*
X135533361Y-77587162D01*
X135553053Y-77649979D01*
X135560980Y-77771278D01*
X135562499Y-77970302D01*
X135562505Y-78010000D01*
X135562505Y-78460000D01*
X135791764Y-78460000D01*
X136021022Y-78460000D01*
X136004683Y-78059883D01*
X135988343Y-77659766D01*
X136117829Y-77659883D01*
X136247316Y-77660000D01*
X136224114Y-78060000D01*
X136200913Y-78460000D01*
X136514070Y-78460000D01*
X136827226Y-78460000D01*
X136805669Y-78010000D01*
X136796500Y-77797068D01*
X136796546Y-77664801D01*
X136809821Y-77594003D01*
X136840339Y-77565474D01*
X136892112Y-77560017D01*
X136899738Y-77560000D01*
X136948455Y-77563344D01*
X136981112Y-77584484D01*
X137000920Y-77640083D01*
X137011090Y-77746805D01*
X137014835Y-77921313D01*
X137015365Y-78160000D01*
X137015365Y-78760000D01*
X136163688Y-78760000D01*
X135312012Y-78760000D01*
X135312012Y-78160000D01*
X135312012Y-77560000D01*
X135437258Y-77560000D01*
X135496548Y-77563584D01*
G37*
G36*
X137015365Y-73822500D02*
G01*
X137015365Y-73960000D01*
X136163688Y-73960000D01*
X135312012Y-73960000D01*
X135312012Y-73822500D01*
X135312012Y-73685000D01*
X136163688Y-73685000D01*
X137015365Y-73685000D01*
X137015365Y-73822500D01*
G37*
G36*
X135508631Y-72067013D02*
G01*
X135546008Y-72104263D01*
X135560316Y-72196067D01*
X135562505Y-72338689D01*
X135562505Y-72617378D01*
X136289006Y-72601189D01*
X137015506Y-72585000D01*
X137015435Y-72722500D01*
X137015365Y-72860000D01*
X136288935Y-72860000D01*
X135562505Y-72860000D01*
X135562505Y-73135000D01*
X135559254Y-73292499D01*
X135542070Y-73374507D01*
X135499809Y-73405495D01*
X135437258Y-73410000D01*
X135312012Y-73410000D01*
X135312012Y-72735000D01*
X135312012Y-72060000D01*
X135437258Y-72060000D01*
X135508631Y-72067013D01*
G37*
G36*
X135374345Y-70289543D02*
G01*
X135480098Y-70370033D01*
X135632045Y-70489261D01*
X135814438Y-70635021D01*
X135818993Y-70638691D01*
X136288935Y-71017381D01*
X136652150Y-70992547D01*
X137015365Y-70967712D01*
X137015365Y-71113856D01*
X137015365Y-71260000D01*
X136611903Y-71260000D01*
X136208442Y-71260000D01*
X135847899Y-71547500D01*
X135680612Y-71681916D01*
X135538338Y-71798094D01*
X135442929Y-71878111D01*
X135421155Y-71897500D01*
X135355271Y-71949771D01*
X135322960Y-71934288D01*
X135312607Y-71837717D01*
X135312012Y-71772206D01*
X135325446Y-71637577D01*
X135380531Y-71560906D01*
X135449783Y-71522868D01*
X135575421Y-71450629D01*
X135720991Y-71345372D01*
X135762899Y-71310780D01*
X135875092Y-71220858D01*
X135956719Y-71166971D01*
X135975818Y-71160118D01*
X136015833Y-71137362D01*
X135969100Y-71069205D01*
X135835039Y-70955029D01*
X135664873Y-70830387D01*
X135492083Y-70704443D01*
X135387320Y-70612745D01*
X135333987Y-70535990D01*
X135315490Y-70454876D01*
X135314182Y-70422500D01*
X135317694Y-70311827D01*
X135329158Y-70260450D01*
X135330531Y-70260000D01*
X135374345Y-70289543D01*
G37*
G36*
X135495281Y-66113299D02*
G01*
X135531874Y-66135682D01*
X135551978Y-66195882D01*
X135560531Y-66312628D01*
X135562473Y-66504654D01*
X135562505Y-66585000D01*
X135562505Y-67060000D01*
X135791764Y-67060000D01*
X136021022Y-67060000D01*
X136004683Y-66659883D01*
X135988343Y-66259766D01*
X136117829Y-66259883D01*
X136247316Y-66260000D01*
X136224114Y-66660000D01*
X136200913Y-67060000D01*
X136608139Y-67060000D01*
X137015365Y-67060000D01*
X137015365Y-67197500D01*
X137015365Y-67335000D01*
X136163688Y-67335000D01*
X135312012Y-67335000D01*
X135312012Y-66722500D01*
X135312012Y-66110000D01*
X135437258Y-66110000D01*
X135495281Y-66113299D01*
G37*
D13*
%TO.C,VR4*%
X160445000Y-93970000D02*
X160445000Y-84440000D01*
X160445000Y-84440000D02*
X165275000Y-84440000D01*
X165275000Y-93970000D02*
X160445000Y-93970000D01*
X165275000Y-84440000D02*
X165275000Y-93970000D01*
D14*
X162965000Y-94455000D02*
G75*
G03*
X162965000Y-94455000I-100000J0D01*
G01*
D13*
%TO.C,VR3*%
X160445000Y-83175000D02*
X160445000Y-73645000D01*
X160445000Y-73645000D02*
X165275000Y-73645000D01*
X165275000Y-83175000D02*
X160445000Y-83175000D01*
X165275000Y-73645000D02*
X165275000Y-83175000D01*
D14*
X162965000Y-83660000D02*
G75*
G03*
X162965000Y-83660000I-100000J0D01*
G01*
D13*
%TO.C,VR2*%
X160445000Y-72380000D02*
X160445000Y-62850000D01*
X160445000Y-62850000D02*
X165275000Y-62850000D01*
X165275000Y-72380000D02*
X160445000Y-72380000D01*
X165275000Y-62850000D02*
X165275000Y-72380000D01*
D14*
X162965000Y-72865000D02*
G75*
G03*
X162965000Y-72865000I-100000J0D01*
G01*
D13*
%TO.C,VR1*%
X160445000Y-61585000D02*
X160445000Y-52055000D01*
X160445000Y-52055000D02*
X165275000Y-52055000D01*
X165275000Y-61585000D02*
X160445000Y-61585000D01*
X165275000Y-52055000D02*
X165275000Y-61585000D01*
D14*
X162965000Y-62070000D02*
G75*
G03*
X162965000Y-62070000I-100000J0D01*
G01*
D12*
%TO.C,R4*%
X149300000Y-92380000D02*
X150070000Y-92380000D01*
X157380000Y-92380000D02*
X156610000Y-92380000D01*
X156610000Y-93750000D02*
X156610000Y-91010000D01*
X150070000Y-91010000D02*
X150070000Y-93750000D01*
X156610000Y-91010000D02*
X150070000Y-91010000D01*
X150070000Y-93750000D02*
X156610000Y-93750000D01*
%TO.C,R3*%
X149300000Y-81585000D02*
X150070000Y-81585000D01*
X157380000Y-81585000D02*
X156610000Y-81585000D01*
X156610000Y-82955000D02*
X156610000Y-80215000D01*
X150070000Y-80215000D02*
X150070000Y-82955000D01*
X156610000Y-80215000D02*
X150070000Y-80215000D01*
X150070000Y-82955000D02*
X156610000Y-82955000D01*
%TO.C,R2*%
X150070000Y-72160000D02*
X156610000Y-72160000D01*
X156610000Y-69420000D02*
X150070000Y-69420000D01*
X150070000Y-69420000D02*
X150070000Y-72160000D01*
X156610000Y-72160000D02*
X156610000Y-69420000D01*
X157380000Y-70790000D02*
X156610000Y-70790000D01*
X149300000Y-70790000D02*
X150070000Y-70790000D01*
%TO.C,R1*%
X150070000Y-61365000D02*
X156610000Y-61365000D01*
X156610000Y-58625000D02*
X150070000Y-58625000D01*
X150070000Y-58625000D02*
X150070000Y-61365000D01*
X156610000Y-61365000D02*
X156610000Y-58625000D01*
X157380000Y-59995000D02*
X156610000Y-59995000D01*
X149300000Y-59995000D02*
X150070000Y-59995000D01*
%TO.C,JP10*%
X144510000Y-58150000D02*
X144510000Y-52950000D01*
X126670000Y-55550000D02*
X126670000Y-52950000D01*
X126670000Y-52950000D02*
X144510000Y-52950000D01*
X124070000Y-55550000D02*
X126670000Y-55550000D01*
X124070000Y-58150000D02*
X144510000Y-58150000D01*
X124070000Y-58150000D02*
X124070000Y-55550000D01*
X124070000Y-52950000D02*
X125400000Y-52950000D01*
X124070000Y-54280000D02*
X124070000Y-52950000D01*
%TO.C,C4*%
X153650000Y-87720000D02*
X153650000Y-87735000D01*
X158190000Y-85595000D02*
X158190000Y-85610000D01*
X153650000Y-85595000D02*
X153650000Y-85610000D01*
X158190000Y-87720000D02*
X158190000Y-87735000D01*
X153650000Y-85595000D02*
X158190000Y-85595000D01*
X153650000Y-87735000D02*
X158190000Y-87735000D01*
%TO.C,C3*%
X153650000Y-76925000D02*
X153650000Y-76940000D01*
X158190000Y-74800000D02*
X158190000Y-74815000D01*
X153650000Y-74800000D02*
X153650000Y-74815000D01*
X158190000Y-76925000D02*
X158190000Y-76940000D01*
X153650000Y-74800000D02*
X158190000Y-74800000D01*
X153650000Y-76940000D02*
X158190000Y-76940000D01*
%TO.C,C2*%
X153610000Y-66145000D02*
X158150000Y-66145000D01*
X153610000Y-64005000D02*
X158150000Y-64005000D01*
X158150000Y-66130000D02*
X158150000Y-66145000D01*
X153610000Y-64005000D02*
X153610000Y-64020000D01*
X158150000Y-64005000D02*
X158150000Y-64020000D01*
X153610000Y-66130000D02*
X153610000Y-66145000D01*
%TO.C,C1*%
X158190000Y-53225000D02*
X158190000Y-53210000D01*
X153650000Y-55350000D02*
X153650000Y-55335000D01*
X158190000Y-55350000D02*
X158190000Y-55335000D01*
X153650000Y-53225000D02*
X153650000Y-53210000D01*
X158190000Y-55350000D02*
X153650000Y-55350000D01*
X158190000Y-53210000D02*
X153650000Y-53210000D01*
%TD*%
M02*
